<svg width="64" height="64" viewBox="0 0 64 64" fill="none" xmlns="http://www.w3.org/2000/svg"><circle opacity="0.1" cx="32" cy="32" r="32" fill="#952F33"/><rect x="21.76" y="15.36" width="20.48" height="37.12" fill="#383838"/><rect x="23.04" y="16.64" width="17.92" height="33.28" fill="#B6B5B5"/><rect x="25.6" y="15.36" width="12.8" height="2.56" fill="#383838"/><rect x="10.2399" y="26.88" width="21.76" height="14.08" fill="white"/><rect x="14.0799" y="29.44" width="14.08" height="1.28" fill="#383838"/><rect x="11.5199" y="32" width="3.84" height="5.12" fill="#383838"/><rect x="16.6399" y="32" width="3.84" height="5.12" fill="#383838"/><rect x="21.7599" y="32" width="3.84" height="5.12" fill="#383838"/><rect x="26.8799" y="32" width="3.84" height="5.12" fill="#383838"/><circle cx="40.96" cy="17.92" r="7.68" fill="#952F33"/><path d="M36.6458 15.5065L40.4858 17.5693C40.6148 17.6384 40.7817 17.6712 40.9496 17.6712C41.1176 17.6712 41.2845 17.6384 41.4135 17.5693L45.2535 15.5065C45.5039 15.3718 45.7404 14.848 45.2811 14.848H36.6186C36.1594 14.848 36.3959 15.3718 36.6458 15.5065ZM45.3697 16.6344L41.4135 18.6962C41.2394 18.7874 41.1176 18.7981 40.9496 18.7981C40.7817 18.7981 40.6598 18.7874 40.4858 18.6962C40.3117 18.6051 36.8337 16.7818 36.5495 16.6339C36.3498 16.5294 36.3519 16.6518 36.3519 16.746V20.48C36.3519 20.6951 36.6417 20.992 36.8639 20.992H45.0559C45.2781 20.992 45.5679 20.6951 45.5679 20.48V16.7465C45.5679 16.6523 45.5699 16.5299 45.3697 16.6344Z" fill="white"/></svg>