<svg width="64" height="64" viewBox="0 0 64 64" fill="none" xmlns="http://www.w3.org/2000/svg"><circle opacity="0.2" cx="32" cy="32" r="32" fill="#952F33"/><rect x="14.6667" y="20" width="34.6667" height="26.6667" rx="4" fill="#952F33"/><rect x="32" y="24" width="13.3333" height="1.33333" fill="white"/><rect x="32" y="26.6667" width="13.3333" height="1.33333" fill="white"/><rect x="32" y="29.3333" width="13.3333" height="1.33333" fill="white"/><rect x="17.3334" y="36" width="17.3333" height="1.33333" fill="white"/><rect x="17.3334" y="38.6667" width="17.3333" height="1.33333" fill="white"/><rect x="17.3334" y="41.3333" width="17.3333" height="1.33333" fill="white"/><circle cx="18.6667" cy="24" r="8" fill="white"/><path d="M16.6667 21.5556C16.6667 22.6583 17.564 23.5556 18.6667 23.5556C19.7694 23.5556 20.6667 22.6583 20.6667 21.5556C20.6667 20.4529 19.7694 19.5556 18.6667 19.5556C17.564 19.5556 16.6667 20.4529 16.6667 21.5556ZM22.2222 28H22.6667V27.5556C22.6667 25.8405 21.2707 24.4445 19.5556 24.4445H17.7778C16.0622 24.4445 14.6667 25.8405 14.6667 27.5556V28H22.2222Z" fill="#B6B5B5"/><path fill-rule="evenodd" clip-rule="evenodd" d="M45.3333 49.3333C49.7516 49.3333 53.3333 45.7516 53.3333 41.3333C53.3333 36.915 49.7516 33.3333 45.3333 33.3333C40.915 33.3333 37.3333 36.915 37.3333 41.3333C37.3333 45.7516 40.915 49.3333 45.3333 49.3333ZM44.1366 39.0914C44.4141 39.0138 44.7089 38.975 45.0211 38.975C45.3333 38.975 45.5675 39.0483 45.7236 39.1948C45.8883 39.3413 45.9707 39.518 45.9707 39.7248C45.9707 39.9747 45.8883 40.1988 45.7236 40.397C45.5588 40.5866 45.3767 40.7805 45.1772 40.9787C45.0385 41.1166 44.904 41.2588 44.774 41.4053C44.6439 41.5518 44.5268 41.7113 44.4227 41.8836C44.3274 42.0474 44.2493 42.2284 44.1886 42.4266C44.1279 42.6162 44.0975 42.8316 44.0975 43.0729V43.3573C44.1062 43.4607 44.1192 43.5555 44.1366 43.6417H45.8536C45.845 43.59 45.8406 43.5297 45.8406 43.4607V43.3056C45.8406 43.1591 45.871 43.0169 45.9317 42.879C45.9924 42.7325 46.0661 42.5946 46.1528 42.4654C46.2482 42.3361 46.3523 42.2154 46.465 42.1034C46.5778 41.9827 46.6862 41.8707 46.7902 41.7673C46.929 41.6294 47.0721 41.4829 47.2195 41.3278C47.3669 41.1726 47.497 41.0089 47.6097 40.8365C47.7225 40.6642 47.8135 40.4789 47.8829 40.2807C47.961 40.0738 48 39.8498 48 39.6085C48 39.3672 47.9566 39.1129 47.8699 38.8458C47.7919 38.5786 47.6488 38.333 47.4406 38.1089C47.2325 37.8849 46.9463 37.6996 46.5821 37.5531C46.2265 37.4066 45.7713 37.3333 45.2162 37.3333C44.774 37.3333 44.323 37.3936 43.8634 37.5143C43.4038 37.6263 43.0049 37.7901 42.6666 38.0055L43.213 39.4663C43.5512 39.2939 43.8591 39.169 44.1366 39.0914ZM45.8536 46.3564C46.1051 46.1496 46.2309 45.8566 46.2309 45.4774C46.2309 45.0982 46.1051 44.8052 45.8536 44.5983C45.6108 44.3915 45.3333 44.2881 45.0211 44.2881C44.7089 44.2881 44.4271 44.3915 44.1756 44.5983C43.9328 44.8052 43.8114 45.0982 43.8114 45.4774C43.8114 45.8566 43.9328 46.1496 44.1756 46.3564C44.4271 46.5632 44.7089 46.6666 45.0211 46.6666C45.3333 46.6666 45.6108 46.5632 45.8536 46.3564Z" fill="#383838"/></svg>