<svg width="20" height="20" viewBox="0 0 20 20" fill="none" xmlns="http://www.w3.org/2000/svg"><g clip-path="url(#clip0_352_53)"><circle cx="9.79167" cy="8.54167" r="1.91667" stroke="#888888" stroke-width="2"/><path fill-rule="evenodd" clip-rule="evenodd" d="M10 0.5625C8.60654 0.5625 6.52645 0.938127 4.76166 2.10289C2.94301 3.30319 1.5 5.32342 1.5 8.4375C1.5 11.5033 2.89423 14.0701 4.55509 15.9967C6.2085 17.9146 8.18666 19.2719 9.54174 19.9514C9.56169 19.9617 9.58196 19.9712 9.60252 19.9801C9.73157 20.0362 9.86669 20.0628 10 20.0627C10.1333 20.0628 10.2684 20.0362 10.3975 19.9801C10.418 19.9712 10.4383 19.9617 10.4583 19.9514C11.8133 19.2719 13.7915 17.9146 15.4449 15.9967C17.1058 14.0701 18.5 11.5033 18.5 8.4375C18.5 5.32342 17.057 3.30319 15.2383 2.10289C13.4735 0.938127 11.3935 0.5625 10 0.5625ZM10 2.5625C8.89346 2.5625 7.22355 2.87437 5.86334 3.77211C4.55699 4.63431 3.5 6.05158 3.5 8.4375C3.5 10.8717 4.60577 12.9924 6.06991 14.6908C7.35717 16.184 8.87422 17.2933 10 17.9294C11.1258 17.2933 12.6428 16.184 13.9301 14.6908C15.3942 12.9924 16.5 10.8717 16.5 8.4375C16.5 6.05158 15.443 4.63431 14.1367 3.77211C12.7765 2.87437 11.1065 2.5625 10 2.5625Z" fill="#888888"/></g><defs><clipPath id="clip0_352_53"><rect width="20" height="20" fill="white"/></clipPath></defs></svg>