<svg width="149" height="36" viewBox="0 0 149 36" fill="none" xmlns="http://www.w3.org/2000/svg">
<g>
<path fill-rule="evenodd" clip-rule="evenodd" d="M38.6713 22.5758H147.054C148.088 22.5758 148.939 23.4242 148.939 24.4545V34.0606C148.939 35.0909 148.088 35.9394 147.054 35.9394H38.6713C37.6376 35.9394 36.7864 35.0909 36.7864 34.0606V24.4545C36.7864 23.4242 37.6376 22.5758 38.6713 22.5758Z" fill="white" stroke="#1B1918" stroke-width="0.5669"/>
<path fill-rule="evenodd" clip-rule="evenodd" d="M91.4187 33.697C91.0539 33.697 90.7498 33.4242 90.7498 33.0606V33.0303V25.9394C90.7498 25.7576 90.8106 25.5758 90.9323 25.4545C91.0539 25.3333 91.2363 25.2727 91.4187 25.2727H96.9822C97.1647 25.2727 97.3471 25.3333 97.4687 25.4545C97.5903 25.5758 97.6511 25.7576 97.6511 25.9394V33.0303C97.6511 33.2121 97.5903 33.3939 97.4687 33.5152C97.3471 33.6364 97.1647 33.697 96.9822 33.697C96.7998 33.697 96.6478 33.6364 96.4958 33.5152C96.3742 33.3939 96.283 33.2121 96.283 33.0303V26.5455H92.0267V33.0606C92.0267 33.2424 91.9659 33.4242 91.8443 33.5455C91.7531 33.6364 91.6011 33.697 91.4187 33.697ZM109.021 35.3333C108.9 35.4848 108.717 35.5455 108.535 35.5455C108.17 35.5455 107.866 35.2727 107.866 34.9091V34.8788V33.1515C107.866 32.9697 107.927 32.7879 108.049 32.6667C108.17 32.5455 108.353 32.4545 108.535 32.4848H108.778L111.575 25.7576C111.666 25.4849 111.91 25.303 112.214 25.303C112.518 25.303 112.761 25.4849 112.852 25.7576L115.649 32.4545H115.892C116.257 32.4545 116.561 32.7273 116.561 33.0909C116.561 33.1212 116.561 33.1212 116.561 33.1515V34.8485C116.561 35.0303 116.5 35.2121 116.379 35.3333C116.257 35.4545 116.075 35.5455 115.892 35.5152C115.527 35.5152 115.223 35.2424 115.223 34.8788V34.8485V33.6667H109.204V34.8485C109.234 35.0303 109.143 35.2121 109.021 35.3333ZM74.3936 33.6061C74.272 33.697 74.0896 33.7576 73.9376 33.7576C73.7551 33.7576 73.5727 33.6667 73.4511 33.5455L70.5325 30.1212H69.6205V33.0909C69.6205 33.2727 69.5597 33.4545 69.4381 33.5758C69.2861 33.697 69.1036 33.7576 68.9212 33.7273C68.7388 33.7273 68.5868 33.6667 68.4652 33.5455C68.3436 33.4242 68.3132 33.2727 68.3132 33.0909V26C68.3132 25.8182 68.374 25.6364 68.526 25.5152C68.6476 25.3939 68.83 25.3333 69.0124 25.3333C69.1949 25.3333 69.3773 25.3939 69.4989 25.5152C69.6205 25.6364 69.6813 25.8182 69.6813 26V28.8788H70.5325L73.2991 25.5758C73.4207 25.4242 73.6031 25.3333 73.7855 25.3333C73.968 25.3333 74.1504 25.3939 74.272 25.5455C74.3936 25.6667 74.4544 25.8182 74.4544 25.9697C74.4544 26.1212 74.3936 26.2727 74.272 26.3939L71.6878 29.3636L74.5456 32.6667C74.6672 32.7879 74.728 32.9394 74.728 33.0909C74.728 33.2424 74.6368 33.4242 74.5152 33.5152L74.4848 33.5455L74.3936 33.6061ZM60.5911 33.7273C60.3479 33.7273 60.1351 33.6061 60.0135 33.3939C59.8919 33.1818 59.8919 32.9394 60.0135 32.7273L62.9016 25.7879C62.9929 25.5152 63.2665 25.3333 63.5401 25.3333C63.8441 25.3333 64.0873 25.5152 64.1785 25.7879L67.1275 32.8182C67.2187 33.0303 67.1883 33.2727 67.0667 33.4545C66.9451 33.6364 66.7323 33.7576 66.4891 33.7576C66.3675 33.7576 66.2459 33.7273 66.1243 33.6364C66.0026 33.5758 65.9114 33.4545 65.881 33.3333L65.3034 31.9091H61.7768L61.1991 33.3333C61.1383 33.4848 61.0471 33.5758 60.9255 33.6667C60.8343 33.7273 60.7127 33.7273 60.5911 33.7273ZM53.5987 33.7273C53.2338 33.7273 52.9298 33.4545 52.9298 33.0909C52.9298 33.0606 52.9298 33.0606 52.9298 33.0303V25.9697C52.9298 25.7879 52.9906 25.6061 53.1122 25.4848C53.2338 25.3636 53.4162 25.303 53.5987 25.303H58.0373C58.1893 25.303 58.3718 25.3636 58.4934 25.4848C58.767 25.6667 58.8582 26.0606 58.6454 26.3636C58.5238 26.5758 58.2806 26.6667 58.0373 26.6364H54.2979V28.7273H56.5476C57.0341 28.7273 57.5509 28.8182 58.0069 29.0303C58.4022 29.2424 58.7366 29.5455 58.9494 29.9091C59.1926 30.303 59.3142 30.7273 59.3142 31.1818C59.3142 31.6667 59.1926 32.1212 58.9494 32.5152C58.7062 32.9091 58.4022 33.2424 58.0069 33.4545C57.5509 33.6667 57.0645 33.7879 56.5476 33.7879L53.5987 33.7273ZM44.7213 33.3939C44.5997 33.1818 44.5997 32.9394 44.7213 32.7273L47.6095 25.7879C47.7007 25.5152 47.9439 25.3333 48.2479 25.3333C48.5519 25.3333 48.7951 25.5152 48.8863 25.7879L51.8353 32.8182C51.9569 33.0303 51.9569 33.2727 51.8353 33.4545C51.6225 33.7576 51.1969 33.8485 50.8929 33.6364C50.7713 33.5758 50.6801 33.4545 50.6497 33.3333L50.072 31.9091H46.4846L45.907 33.303C45.8462 33.4242 45.7549 33.5455 45.6333 33.6061C45.5421 33.6667 45.4205 33.697 45.3293 33.697C45.0557 33.7273 44.8429 33.6061 44.7213 33.3939ZM42.0155 33.7576C41.9851 33.7576 41.9851 33.7576 41.9547 33.7576H41.8331V33.7273C41.5291 33.6667 41.2859 33.4242 41.2859 33.0909V33.0606V26.5758H39.1577C38.8233 26.6061 38.5497 26.3333 38.5193 26C38.5193 25.9697 38.5193 25.9697 38.5193 25.9394C38.5193 25.7576 38.5801 25.6061 38.7017 25.4848C38.8233 25.3636 39.0057 25.303 39.1577 25.303H44.7517C44.9341 25.303 45.0861 25.3636 45.2077 25.4848C45.3293 25.6061 45.3901 25.7576 45.3901 25.9394C45.4205 26.2727 45.1469 26.5455 44.8125 26.5758C44.7821 26.5758 44.7821 26.5758 44.7517 26.5758H42.6235V33.0909C42.6539 33.4242 42.3803 33.7273 42.0155 33.7576ZM79.4099 33.5152C79.2275 33.5152 79.0451 33.4545 78.9235 33.3333C78.8019 33.2121 78.7107 33.0303 78.7107 32.8485V25.7576C78.7107 25.5758 78.7715 25.3939 78.9235 25.2727C79.0451 25.1515 79.2275 25.0909 79.4099 25.0909C79.5923 25.0909 79.7747 25.1515 79.8963 25.2727C80.0179 25.3939 80.0788 25.5758 80.0788 25.7576V31.303L84.8519 25.3333C85.1255 25.0606 85.5511 25.0303 85.8247 25.303C85.8247 25.303 85.8247 25.303 85.8551 25.3333C85.9767 25.4545 86.0375 25.6364 86.0375 25.8182V32.8788C86.0375 33.0606 85.9767 33.2424 85.8551 33.3636C85.7335 33.4848 85.5511 33.5758 85.3687 33.5455C85.0039 33.5455 84.6999 33.2727 84.6999 32.9091C84.6999 32.8788 84.6999 32.8788 84.6999 32.8485V27.3333L79.9267 33.303C79.8659 33.3636 79.7747 33.4242 79.6835 33.4848C79.5923 33.5152 79.5011 33.5152 79.4099 33.5152ZM140.427 33.697C140.244 33.697 140.092 33.6364 139.94 33.5152C139.788 33.3939 139.727 33.2121 139.727 33.0303V25.9394C139.727 25.7576 139.788 25.5758 139.94 25.4545C140.062 25.3333 140.244 25.2727 140.427 25.2727C140.609 25.2727 140.791 25.3333 140.913 25.4545C141.035 25.5758 141.095 25.7576 141.095 25.9394V31.4849L145.869 25.5152C146.112 25.2121 146.537 25.1818 146.811 25.3939C146.963 25.5152 147.054 25.7273 147.054 25.9394V33.0303C147.054 33.2121 146.993 33.3939 146.872 33.5152C146.75 33.6364 146.568 33.7273 146.385 33.697C146.203 33.697 146.051 33.6364 145.899 33.5152C145.777 33.3939 145.686 33.2121 145.686 33.0303V27.5152L140.913 33.4848C140.852 33.5455 140.761 33.6061 140.7 33.6364C140.609 33.697 140.518 33.697 140.427 33.697ZM132.674 33.697C132.553 33.6667 132.431 33.6061 132.34 33.5152C132.218 33.3939 132.127 33.2121 132.127 33.0303V25.9394C132.127 25.7576 132.188 25.5758 132.34 25.4545C132.461 25.3333 132.644 25.2727 132.826 25.2727C133.009 25.2727 133.191 25.3333 133.313 25.4545C133.434 25.5758 133.495 25.7576 133.495 25.9394V28.7879H134.407L137.174 25.5152C137.295 25.3636 137.478 25.2727 137.66 25.2727C137.842 25.2727 138.025 25.3333 138.146 25.4848C138.268 25.6061 138.329 25.7576 138.329 25.9091C138.329 26.0606 138.238 26.2121 138.146 26.3333L135.562 29.303L138.42 32.6061C138.542 32.7273 138.603 32.8788 138.603 33.0303C138.603 33.2121 138.511 33.3636 138.39 33.4545L138.359 33.4848H138.329C138.055 33.697 137.66 33.697 137.386 33.4545L134.437 29.9697H133.525V32.9697C133.556 33.3333 133.282 33.6364 132.917 33.6364C132.887 33.6364 132.857 33.6364 132.857 33.6364H132.735L132.674 33.697ZM126.168 33.697C125.986 33.697 125.803 33.6364 125.682 33.5152C125.56 33.3939 125.469 33.2121 125.499 33.0303V25.9394C125.499 25.7576 125.56 25.5758 125.682 25.4545C125.803 25.3333 125.986 25.2727 126.168 25.2727H128.266C128.783 25.2727 129.269 25.3939 129.725 25.6364C130.12 25.8788 130.455 26.2424 130.668 26.6364C130.911 27.0909 131.032 27.6061 131.032 28.1212C131.032 28.6061 130.911 29.1212 130.668 29.5455C130.455 29.9394 130.12 30.2727 129.725 30.5152C129.269 30.7576 128.783 30.8788 128.266 30.8788H126.867V33.0909C126.867 33.2727 126.807 33.4545 126.685 33.5758C126.533 33.6667 126.351 33.697 126.168 33.697ZM123.554 33.5758C123.432 33.5152 123.341 33.3939 123.28 33.2727L122.702 31.8788H119.084L118.507 33.2727C118.446 33.3939 118.355 33.5152 118.233 33.6061C118.112 33.6667 117.99 33.697 117.868 33.697C117.625 33.697 117.412 33.5758 117.291 33.3636C117.169 33.1515 117.169 32.9091 117.291 32.697L120.24 25.697C120.331 25.4242 120.574 25.2424 120.878 25.2424C121.182 25.2424 121.425 25.4242 121.517 25.697L124.466 32.7273C124.557 32.9394 124.557 33.1818 124.466 33.3636C124.253 33.697 123.858 33.7879 123.554 33.5758ZM99.08 29.4545C99.08 28.8788 99.1712 28.2727 99.384 27.7273C99.5968 27.2121 99.8704 26.7576 100.266 26.3636C100.661 25.9697 101.117 25.6364 101.634 25.4242C102.759 25 103.975 25 105.1 25.4242C106.133 25.8485 106.954 26.6667 107.349 27.697C107.562 28.2424 107.653 28.8485 107.653 29.4242C107.653 30.0303 107.562 30.6061 107.349 31.1515C107.136 31.6667 106.832 32.1212 106.468 32.5152C106.072 32.9091 105.616 33.2424 105.1 33.4545C104.552 33.697 103.975 33.7879 103.367 33.8182C102.789 33.8182 102.181 33.7273 101.634 33.5152C101.117 33.303 100.661 32.9697 100.266 32.5758C99.8704 32.1818 99.5968 31.7273 99.384 31.2121C99.2016 30.6364 99.08 30.0303 99.08 29.4545ZM110.177 32.4848H114.311L112.183 27.3636L110.177 32.4848ZM64.8778 30.7576L63.5705 27.5758L62.2632 30.7273H64.8778V30.7576ZM54.2675 32.4545H56.5172C56.7909 32.4545 57.0645 32.3939 57.3077 32.303C57.5205 32.2121 57.7029 32.0606 57.8245 31.8485C57.9461 31.6364 58.0373 31.3636 58.0069 31.1212C58.0069 30.8788 57.9461 30.6364 57.8245 30.4242C57.7029 30.2424 57.5205 30.0909 57.3077 30.0303C57.0645 29.9394 56.7909 29.8788 56.5172 29.8788H54.2675V32.4545ZM49.616 30.7576L48.3087 27.5758L46.971 30.7273H49.616V30.7576ZM126.867 29.6061H128.296C128.57 29.6061 128.843 29.5455 129.087 29.4242C129.3 29.303 129.482 29.1212 129.604 28.9091C129.725 28.6667 129.816 28.4242 129.786 28.1515C129.786 27.8485 129.725 27.5758 129.604 27.303C129.482 27.0909 129.3 26.8788 129.087 26.7576C128.843 26.6364 128.57 26.5455 128.296 26.5455H126.867V29.6061ZM122.216 30.7273L120.909 27.5152L119.601 30.7273H122.216ZM105.525 31.6667C105.799 31.3939 106.012 31.0606 106.133 30.697C106.437 29.9091 106.437 29.0606 106.133 28.2727C105.981 27.9091 105.768 27.5758 105.525 27.303C105.069 26.8788 104.522 26.5758 103.914 26.4849C103.336 26.3939 102.728 26.4545 102.181 26.6667C101.816 26.8182 101.512 27.0303 101.239 27.303C100.965 27.5758 100.752 27.9091 100.63 28.2727C100.326 29.0606 100.326 29.9091 100.63 30.697C100.782 31.0606 100.965 31.3939 101.239 31.6667C101.512 31.9394 101.816 32.1515 102.181 32.303C102.546 32.4545 102.971 32.5455 103.367 32.5455C103.762 32.5455 104.188 32.4848 104.552 32.303C104.917 32.1818 105.252 31.9394 105.525 31.6667Z" fill="#050109"/>
<path fill-rule="evenodd" clip-rule="evenodd" d="M91.4187 33.5757C91.1147 33.5757 90.8715 33.3636 90.8715 33.0606V33.0303V25.9394C90.8715 25.7879 90.9323 25.6667 91.0235 25.5454C91.1147 25.4545 91.2667 25.3939 91.4187 25.3939H96.9823C97.1343 25.3939 97.2863 25.4545 97.3775 25.5454C97.4687 25.6364 97.5295 25.7879 97.5295 25.9394V33.0303C97.5295 33.1818 97.4687 33.303 97.3775 33.4242C97.2559 33.5151 97.1343 33.5757 96.9823 33.5757C96.8302 33.5757 96.7086 33.5151 96.6174 33.4242C96.4958 33.3333 96.4654 33.1818 96.4654 33.0303V26.3939H91.9355V33.0303C91.9355 33.1818 91.8747 33.303 91.7835 33.4242C91.6923 33.5151 91.5707 33.5757 91.4187 33.5757ZM108.535 35.4242C108.261 35.4242 107.988 35.2121 107.988 34.9091V34.8788V33.1515C107.988 33 108.049 32.8788 108.14 32.7576C108.231 32.6667 108.383 32.6061 108.535 32.6061H108.869L111.697 25.8182C111.758 25.6061 111.97 25.4545 112.214 25.4545C112.457 25.4545 112.67 25.6061 112.73 25.8182L115.588 32.6061H115.923C116.227 32.6061 116.47 32.8182 116.47 33.1212V33.1515V34.8485C116.47 35 116.409 35.1212 116.318 35.2424C116.227 35.3333 116.075 35.3939 115.923 35.3939C115.619 35.3939 115.375 35.1818 115.375 34.8788V34.8485V33.5151H109.082V34.8485C109.082 35 109.021 35.1212 108.93 35.2424C108.839 35.3636 108.687 35.4242 108.535 35.4242ZM109.964 32.6061H114.494L112.183 27.0303L109.964 32.6061ZM74.3328 33.4545C74.2112 33.5454 74.0896 33.6061 73.9376 33.6061C73.7856 33.6061 73.6335 33.5454 73.5423 33.4242L70.5933 29.9697H69.4989V33.0909C69.4989 33.2424 69.4381 33.3636 69.3469 33.4848C69.2253 33.5757 69.0733 33.6364 68.9212 33.6061C68.7692 33.6061 68.6476 33.5454 68.5564 33.4545C68.4652 33.3636 68.4348 33.2121 68.4348 33.0909V26C68.4348 25.8485 68.4956 25.697 68.5868 25.6061C68.678 25.5151 68.83 25.4545 68.982 25.4545C69.1341 25.4545 69.2861 25.5151 69.3773 25.6061C69.4685 25.697 69.5293 25.8485 69.5293 26V29H70.563L73.3903 25.6364C73.4815 25.5151 73.6335 25.4545 73.7856 25.4545C73.9376 25.4545 74.0592 25.5151 74.1504 25.6061C74.2416 25.697 74.3024 25.8182 74.3024 25.9394C74.3024 26.0606 74.2416 26.1818 74.1504 26.303L71.4446 29.3939L74.3632 32.7879C74.4544 32.8788 74.5152 33 74.5152 33.1515C74.5152 33.2727 74.4544 33.3939 74.3632 33.4848H74.3328V33.4545ZM60.5911 33.6061C60.4087 33.6061 60.2263 33.5151 60.1351 33.3636C60.0439 33.2121 60.0439 33 60.1351 32.8182L63.0537 25.8485C63.1145 25.6364 63.3273 25.4848 63.5705 25.4848C63.8137 25.4848 64.0265 25.6364 64.0873 25.8485L67.0363 32.8788C67.1275 33.0606 67.0971 33.2424 67.0059 33.3939C66.9147 33.5454 66.7323 33.6364 66.5499 33.6364C66.4283 33.6364 66.3371 33.6061 66.2459 33.5454C66.1547 33.4848 66.0939 33.3939 66.0331 33.303L65.425 31.7879H61.716L61.1079 33.303C61.0775 33.4242 60.9863 33.5151 60.8951 33.5454C60.8039 33.6061 60.6823 33.6061 60.5911 33.6061ZM65.0602 30.8788L63.5705 27.2121L62.0808 30.8788H65.0602ZM54.1459 32.5757H56.5476C56.8517 32.5757 57.1253 32.5151 57.3989 32.4242C57.6421 32.303 57.8245 32.1515 57.9765 31.9394C58.1285 31.697 58.1894 31.4242 58.1894 31.1212C58.1894 30.8485 58.1285 30.5757 57.9765 30.3333C57.8549 30.1212 57.6421 29.9697 57.3989 29.8788C57.1253 29.7879 56.8517 29.7273 56.5476 29.7273H54.1459V32.5757ZM53.5987 33.6061C53.2946 33.6061 53.0514 33.3939 53.0514 33.0909V33.0606V25.9697C53.0514 25.8182 53.1122 25.697 53.2034 25.5757C53.2946 25.4848 53.4466 25.4242 53.5987 25.4242H58.0373C58.1589 25.4242 58.311 25.4848 58.4022 25.5757C58.6454 25.7273 58.6758 26.0303 58.5238 26.2727C58.4022 26.4242 58.2198 26.5151 58.0373 26.4848H54.1459V28.8485H56.5476C57.0341 28.8485 57.4901 28.9394 57.9461 29.1515C58.311 29.3333 58.615 29.6364 58.8582 29.9697C59.1014 30.3333 59.223 30.7576 59.1926 31.1818C59.1926 31.6364 59.071 32.0606 58.8582 32.4545C58.6454 32.8182 58.3414 33.1515 57.9461 33.3636C57.5205 33.5757 57.0341 33.697 56.5476 33.6667L53.5987 33.6061ZM45.2989 33.6061C45.1165 33.6061 44.9341 33.5151 44.8429 33.3636C44.7517 33.2121 44.7517 33 44.8429 32.8182L47.7615 25.8485C47.8223 25.6364 48.0351 25.4848 48.2783 25.4848C48.5215 25.4848 48.7343 25.6364 48.7951 25.8485L51.7441 32.8788C51.8353 33.0303 51.8353 33.2424 51.7441 33.3939C51.5617 33.6364 51.2273 33.697 50.9841 33.5454C50.8929 33.4848 50.8321 33.3939 50.7713 33.303L50.1632 31.7879H46.3934L45.755 33.2727C45.7246 33.3939 45.6333 33.4545 45.5421 33.5151C45.4813 33.5454 45.3901 33.5757 45.2989 33.6061ZM49.7984 30.8788L48.3391 27.2424L46.7886 30.9091H49.7984V30.8788ZM39.1577 26.4242C38.8841 26.4545 38.6713 26.2424 38.6713 25.9697C38.6713 25.9394 38.6713 25.9394 38.6713 25.9091C38.6713 25.7879 38.7017 25.6364 38.7929 25.5454C38.8841 25.4545 39.0057 25.3939 39.1577 25.3939H41.4075H42.5019H44.7517C44.8733 25.3939 45.0253 25.4545 45.1165 25.5454C45.2077 25.6364 45.2685 25.7879 45.2381 25.9091C45.2381 26.1818 45.0557 26.3939 44.7821 26.3939C44.7517 26.3939 44.7517 26.3939 44.7213 26.3939H42.4715V33.0303C42.4715 33.3333 42.2587 33.5757 41.9547 33.5757H41.9243V33.5454C41.6203 33.5454 41.3771 33.3333 41.3771 33.0303V33V26.4242H39.1577ZM79.4099 33.3636C79.2579 33.3636 79.1059 33.303 79.0147 33.2121C78.8931 33.1212 78.8627 32.9697 78.8627 32.8182V25.7576C78.8627 25.6061 78.9235 25.4545 79.0147 25.3636C79.1363 25.2727 79.2579 25.2121 79.4099 25.2121C79.5619 25.2121 79.6835 25.2727 79.8051 25.3636C79.8964 25.4545 79.9572 25.6061 79.9572 25.7576V31.697L84.9735 25.4242C85.1863 25.2121 85.5207 25.1818 85.7639 25.3939L85.7943 25.4242C85.8855 25.5151 85.9463 25.6667 85.9463 25.8182V32.8788C85.9463 33.0303 85.8855 33.1515 85.7943 33.2727C85.7031 33.3636 85.5511 33.4242 85.3991 33.4242C85.1255 33.4242 84.8519 33.2121 84.8519 32.9091V32.8788V26.9394L79.8355 33.2121C79.7747 33.2727 79.7139 33.303 79.6531 33.3333C79.5619 33.3636 79.5011 33.3939 79.4099 33.3636ZM140.427 33.5757C140.275 33.5757 140.153 33.5151 140.031 33.4242C139.91 33.3333 139.849 33.1818 139.849 33.0303V25.9394C139.849 25.7879 139.91 25.6364 140.031 25.5454C140.123 25.4545 140.275 25.3939 140.427 25.3939C140.579 25.3939 140.7 25.4545 140.822 25.5454C140.913 25.6667 140.974 25.7879 140.943 25.9394V31.8788L145.96 25.6061C146.142 25.3636 146.477 25.3333 146.72 25.5151C146.841 25.6061 146.933 25.7879 146.933 25.9394V33.0303C146.933 33.1818 146.872 33.303 146.781 33.4242C146.689 33.5151 146.537 33.5757 146.385 33.5757C146.233 33.5757 146.112 33.5151 146.021 33.4242C145.899 33.3333 145.869 33.1818 145.869 33.0303V27.1515L140.883 33.4242C140.822 33.4848 140.761 33.5151 140.7 33.5454C140.579 33.5757 140.487 33.5757 140.427 33.5757ZM132.796 33.5757C132.644 33.5757 132.522 33.5151 132.401 33.4242C132.279 33.3333 132.249 33.1818 132.249 33.0303V25.9394C132.249 25.7879 132.309 25.6364 132.401 25.5454C132.492 25.4545 132.644 25.3939 132.796 25.3939C132.948 25.3939 133.1 25.4545 133.191 25.5454C133.282 25.6364 133.343 25.7879 133.343 25.9394V28.9394H134.437L137.234 25.6061C137.326 25.4848 137.478 25.4242 137.63 25.4242C137.782 25.4242 137.903 25.4848 137.994 25.5757C138.086 25.6667 138.146 25.7879 138.146 25.9091C138.146 26.0303 138.086 26.1515 137.994 26.2727L135.35 29.3333L138.268 32.7273C138.359 32.8182 138.42 32.9394 138.42 33.0909C138.42 33.2121 138.359 33.3333 138.268 33.4242H138.238C138.025 33.6364 137.66 33.6364 137.447 33.4242L134.468 29.9091H133.373V33.0303C133.404 33.303 133.161 33.5454 132.887 33.5757C132.857 33.5757 132.826 33.5757 132.796 33.5757ZM126.715 29.7273H128.266C128.57 29.7273 128.843 29.6667 129.117 29.5151C129.36 29.3636 129.543 29.1818 129.695 28.9394C129.847 28.697 129.908 28.3939 129.908 28.1212C129.908 27.8182 129.847 27.4848 129.695 27.2121C129.573 26.9697 129.36 26.7576 129.117 26.6061C128.843 26.4545 128.57 26.3939 128.266 26.3939H126.715V29.7273ZM126.199 33.5757C126.047 33.5757 125.925 33.5151 125.803 33.4242C125.712 33.3333 125.651 33.1818 125.651 33.0303V25.9394C125.651 25.7879 125.712 25.6667 125.803 25.5454C125.895 25.4545 126.047 25.3939 126.199 25.3939H128.296C128.783 25.3939 129.269 25.5151 129.695 25.7273C130.09 25.9697 130.394 26.303 130.607 26.697C130.85 27.1212 130.972 27.6061 130.941 28.1212C130.941 28.6061 130.82 29.0606 130.607 29.4848C130.394 29.8485 130.09 30.1818 129.695 30.3939C129.269 30.6364 128.783 30.7273 128.296 30.7273H126.746V33.0606C126.746 33.2121 126.685 33.3333 126.594 33.4545C126.472 33.5151 126.32 33.5757 126.199 33.5757ZM117.899 33.5757C117.716 33.5757 117.534 33.4848 117.443 33.3333C117.352 33.1818 117.352 32.9697 117.443 32.7879L120.392 25.7879C120.453 25.5757 120.665 25.4242 120.909 25.4242C121.152 25.4242 121.365 25.5757 121.425 25.7879L124.374 32.8182C124.466 32.9697 124.466 33.1818 124.374 33.3333C124.192 33.5757 123.858 33.6364 123.614 33.4848C123.523 33.4242 123.432 33.3333 123.402 33.2424L122.794 31.7576H119.024L118.416 33.2424C118.385 33.3333 118.294 33.4242 118.203 33.4848C118.112 33.5454 118.02 33.5757 117.899 33.5757ZM122.429 30.8485L120.909 27.1515L119.388 30.8485H122.429ZM103.367 32.697C103.792 32.697 104.218 32.6061 104.613 32.4545C104.978 32.303 105.312 32.0606 105.616 31.7879C105.89 31.4848 106.103 31.1515 106.255 30.7576C106.559 29.9394 106.559 29.0303 106.255 28.2424C106.103 27.8788 105.89 27.5151 105.616 27.2121C104.674 26.303 103.306 26.0606 102.12 26.5454C101.755 26.697 101.421 26.9394 101.147 27.2121C100.874 27.5151 100.661 27.8485 100.509 28.2424C100.205 29.0606 100.205 29.9697 100.509 30.7576C100.661 31.1212 100.874 31.4848 101.147 31.7879C101.421 32.0909 101.755 32.303 102.12 32.4545C102.515 32.6061 102.941 32.697 103.367 32.697ZM103.367 33.6667C102.789 33.6667 102.211 33.5757 101.695 33.3636C101.208 33.1515 100.752 32.8485 100.387 32.4545C100.022 32.0606 99.7184 31.6364 99.536 31.1212C99.3232 30.5757 99.232 30 99.232 29.4242C99.232 28.8485 99.3232 28.2727 99.536 27.7576C99.7184 27.2727 100.022 26.8182 100.387 26.4242C100.752 26.0303 101.208 25.7273 101.695 25.5151C102.789 25.0909 103.975 25.0909 105.069 25.5151C106.072 25.9091 106.863 26.697 107.228 27.697C107.441 28.2424 107.532 28.7879 107.532 29.3636C107.532 29.9394 107.441 30.5151 107.228 31.0606C107.015 31.5454 106.741 32 106.376 32.3939C106.012 32.7879 105.556 33.0909 105.069 33.303C104.522 33.5454 103.944 33.6667 103.367 33.6667Z" fill="#1B1918"/>
<path fill-rule="evenodd" clip-rule="evenodd" d="M64.7866 20.0606C63.6617 20.0909 62.5976 19.7879 61.6552 19.1818C60.7127 18.6061 59.9831 17.7879 59.4662 16.8182C58.919 15.7879 58.6454 14.6061 58.6454 13.4242C58.615 12.2121 58.919 11.0303 59.527 10C61.3512 6.84848 65.425 5.75757 68.5868 7.60606C69.5901 8.18182 70.4109 9 70.9886 10C71.5662 11.0303 71.8702 12.2121 71.8702 13.4242H71.9006V18.7576C71.931 19.4242 71.3838 19.9697 70.7454 19.9697C70.715 19.9697 70.715 19.9697 70.6846 19.9697C70.0157 20 69.4685 19.4545 69.4685 18.8182C69.4685 18.7879 69.4685 18.7879 69.4685 18.7576V17.8485C69.0429 18.3636 68.526 18.8182 67.9788 19.1818C66.9755 19.7576 65.881 20.0909 64.7866 20.0606ZM65.273 17.9091C66.0331 17.9091 66.7931 17.7273 67.4619 17.3333C68.1004 16.9394 68.6172 16.3939 68.982 15.7273C69.3469 15.0303 69.5597 14.2424 69.5293 13.4242C69.5293 12.6364 69.3469 11.8182 68.982 11.1212C68.6172 10.4545 68.1004 9.90909 67.4619 9.51515C66.1243 8.72727 64.4522 8.72727 63.1145 9.51515C62.476 9.90909 61.9288 10.4545 61.5944 11.1212C61.1991 11.8182 61.0167 12.6364 61.0167 13.4242C61.0167 14.2121 61.1991 15 61.5944 15.7273C61.9592 16.3939 62.476 16.9394 63.1145 17.3333C63.7529 17.697 64.513 17.9091 65.273 17.9091Z" fill="#FFEC00" stroke="#1B1918" stroke-width="0.5669"/>
<path fill-rule="evenodd" clip-rule="evenodd" d="M81.5077 20.0606C80.322 20.0909 79.1363 19.8182 78.0722 19.2727C77.0994 18.7576 76.3089 18 75.7313 17.0909C75.1536 16.1212 74.8496 15.0303 74.8496 13.8788H74.88V11.1818C74.9104 9.33334 75.4577 7.54546 76.4913 6.00001C77.7074 4.30304 79.3795 2.9697 81.2948 2.18182L85.7943 0.181824C86.068 0.0606119 86.372 0.0303089 86.6456 0.121218C86.9192 0.212127 87.1016 0.424248 87.1928 0.696975C87.3144 0.969703 87.3144 1.24243 87.284 1.51516C87.2232 1.75758 86.98 2.00001 86.5848 2.18182L81.7205 4.42425C80.6868 4.84849 79.7443 5.48485 78.9539 6.24243C78.2546 6.9091 77.7074 7.69697 77.3426 8.60607C77.0994 9.24243 76.917 9.9091 76.8562 10.6061C77.3426 9.75758 78.0418 9.03031 78.8931 8.54546C80.8084 7.48485 83.119 7.48485 85.0039 8.54546C85.8855 9.06061 86.6152 9.81819 87.1016 10.7273C87.6184 11.697 87.8921 12.8182 87.8617 13.9394C87.8921 15.0606 87.588 16.1515 87.0408 17.1515C86.4936 18.0909 85.7335 18.8485 84.7911 19.3333C83.7878 19.8182 82.6629 20.0606 81.5077 20.0606ZM81.5077 17.9091C82.2373 17.9394 82.9669 17.7576 83.6054 17.3939C84.2134 17.0606 84.6999 16.5758 85.0343 15.9697C85.3991 15.3333 85.5511 14.6061 85.5511 13.8788C85.5511 13.1515 85.3991 12.4546 85.0343 11.8182C84.6999 11.2424 84.2134 10.7273 83.6054 10.3939C82.9669 10.0606 82.2373 9.87879 81.5077 9.9091C80.7476 9.87879 79.9876 10.0606 79.2883 10.3939C78.6803 10.7273 78.1634 11.2121 77.7986 11.8182C77.4338 12.4546 77.2514 13.1515 77.2514 13.8788C77.2514 14.6061 77.4338 15.3333 77.7986 15.9697C78.1634 16.5758 78.6803 17.0606 79.2883 17.3939C79.9876 17.7273 80.7476 17.9091 81.5077 17.9091Z" fill="#FFEC00" stroke="#1B1918" stroke-width="0.5669"/>
<path fill-rule="evenodd" clip-rule="evenodd" d="M96.6782 20.0606C95.5534 20.0909 94.4893 19.7879 93.5468 19.1818C92.6348 18.6061 91.8747 17.7879 91.3579 16.8182C90.8106 15.7576 90.537 14.6061 90.5674 13.4242C90.537 12.2121 90.841 11.0303 91.4491 10C92.0267 9 92.8476 8.18182 93.8204 7.60606C94.8541 7 96.0094 6.72727 97.1951 6.72727C99.5664 6.69697 101.755 7.93939 102.911 9.9697C103.519 11 103.792 12.1818 103.792 13.3939H103.823V18.7273C103.853 19.3939 103.306 19.9394 102.667 19.9394C102.637 19.9394 102.637 19.9394 102.607 19.9394C102.272 19.9394 101.968 19.8182 101.725 19.6061C101.482 19.3636 101.36 19.0606 101.391 18.7273V17.8182C100.965 18.3333 100.448 18.7879 99.8704 19.1515C98.8976 19.7576 97.8031 20.0606 96.6782 20.0606ZM97.1647 17.9091C97.9247 17.9091 98.6848 17.7273 99.3536 17.3333C99.992 16.9394 100.509 16.3939 100.874 15.7273C101.239 15.0303 101.451 14.2424 101.421 13.4242C101.421 12.6364 101.239 11.8182 100.843 11.1212C100.478 10.4545 99.9616 9.90909 99.3232 9.51515C97.9855 8.72727 96.3134 8.72727 94.9757 9.51515C94.3373 9.90909 93.79 10.4545 93.4252 11.1212C93.03 11.8182 92.8476 12.6364 92.8476 13.4242C92.8476 14.2121 93.03 15 93.4252 15.7273C93.79 16.3939 94.3069 16.9394 94.9757 17.3333C95.6446 17.7273 96.4046 17.9091 97.1647 17.9091Z" fill="#FFEC00" stroke="#1B1918" stroke-width="0.5669"/>
<path fill-rule="evenodd" clip-rule="evenodd" d="M108.565 19.9697C108.261 20 107.927 19.8485 107.714 19.6364C107.501 19.3939 107.38 19.0909 107.41 18.7576V8.0909C107.41 7.75757 107.501 7.45454 107.714 7.21212C107.927 6.96969 108.231 6.84848 108.565 6.87878C108.9 6.87878 109.234 7 109.477 7.21212C109.721 7.45454 109.842 7.75757 109.812 8.0909V12.1212H111.636L115.983 7.27272C116.227 7.0303 116.531 6.90909 116.865 6.87878C117.169 6.81818 117.504 6.90909 117.747 7.12121C117.96 7.30303 118.112 7.57575 118.142 7.87878C118.172 8.15151 118.081 8.42424 117.868 8.63636L113.521 13.2727L118.142 18.1818C118.537 18.5454 118.537 19.1818 118.172 19.5758C118.142 19.6061 118.112 19.6364 118.081 19.6667V19.697C117.564 20.0909 116.835 20.0606 116.318 19.6364L111.393 14.3636H109.812V18.7879C109.812 19.1212 109.69 19.4242 109.477 19.6667C109.234 19.8788 108.9 20 108.565 19.9697Z" fill="#FFEC00" stroke="#1B1918" stroke-width="0.5669"/>
<path fill-rule="evenodd" clip-rule="evenodd" d="M126.685 20.0606C125.499 20.0909 124.314 19.7879 123.25 19.2121C122.277 18.6667 121.456 17.8485 120.909 16.8788C119.784 14.7273 119.784 12.1515 120.909 9.96969C121.456 8.99999 122.277 8.18181 123.25 7.63636C125.378 6.48484 127.962 6.48484 130.12 7.63636C131.093 8.18181 131.914 8.99999 132.461 9.96969C133.586 12.1212 133.586 14.697 132.461 16.8788C131.914 17.8485 131.124 18.6667 130.12 19.2121C129.056 19.7879 127.871 20.0909 126.685 20.0606ZM126.685 17.9091C127.445 17.9394 128.235 17.7273 128.904 17.3333C129.543 16.9394 130.06 16.3939 130.394 15.7576C130.759 15.0303 130.941 14.2424 130.941 13.4242C130.941 12.6061 130.759 11.8182 130.394 11.0909C130.06 10.4242 129.543 9.87878 128.904 9.48484C127.536 8.72727 125.864 8.72727 124.496 9.48484C123.858 9.87878 123.341 10.4242 122.976 11.0909C122.611 11.8182 122.398 12.6061 122.429 13.4242C122.398 14.2424 122.611 15.0303 122.976 15.7576C123.341 16.4242 123.858 16.9697 124.496 17.3333C125.134 17.7273 125.895 17.9091 126.685 17.9091Z" fill="#FFEC00" stroke="#1B1918" stroke-width="0.5669"/>
<path fill-rule="evenodd" clip-rule="evenodd" d="M147.632 19.9697C146.963 20 146.416 19.4545 146.416 18.8182C146.416 18.7879 146.416 18.7879 146.416 18.7576V14.2424H138.998V18.7576C138.998 19.0909 138.876 19.3939 138.663 19.6364C138.42 19.8788 138.116 20 137.782 19.9697C137.447 19.9697 137.143 19.8485 136.93 19.6364C136.718 19.3939 136.596 19.0909 136.596 18.7576V8.0909C136.596 7.75757 136.687 7.45454 136.93 7.21212C137.143 6.96969 137.478 6.84848 137.782 6.87878C138.42 6.84848 138.967 7.33333 138.998 7.96969C138.998 8.0303 138.998 8.0606 138.998 8.12121V12.1515H146.416V8.0909C146.385 7.75757 146.537 7.42424 146.75 7.21212C146.993 6.99999 147.297 6.87878 147.632 6.87878C147.966 6.84848 148.301 6.99999 148.514 7.24242C148.726 7.48484 148.848 7.81818 148.818 8.12121V18.7879C148.818 19.1212 148.726 19.4242 148.514 19.6667C148.27 19.8788 147.966 20 147.632 19.9697Z" fill="#FFEC00" stroke="#1B1918" stroke-width="0.5669"/>
<path fill-rule="evenodd" clip-rule="evenodd" d="M54.2979 19.9697C53.6291 20 53.0818 19.4848 53.0818 18.8182C53.0818 18.7879 53.0818 18.7879 53.0818 18.7576V11.9091C53.1426 11.0909 52.8994 10.2727 52.3522 9.63636C51.8353 9.12121 51.1057 8.87879 50.4064 8.90909C49.616 8.87879 48.8863 9.21212 48.3695 9.75758C47.9135 10.2424 47.6399 10.8788 47.5791 11.5152C47.5791 11.6364 47.5791 11.7576 47.5791 11.8485V18.697C47.5791 19.0303 47.4575 19.3333 47.2446 19.5758C47.0318 19.8182 46.6974 19.9697 46.363 19.9394C46.0286 19.9394 45.7245 19.8182 45.4813 19.6061C45.2381 19.3636 45.1165 19.0606 45.1469 18.7273V11.9091C45.2077 11.0909 44.9645 10.2727 44.4173 9.63636C43.9004 9.12121 43.1708 8.87879 42.4715 8.90909C41.6811 8.87879 40.9514 9.21212 40.4042 9.75758C39.9482 10.2424 39.6746 10.8788 39.6137 11.5455V18.7273C39.6137 19.0606 39.4921 19.3636 39.2793 19.6061C39.0361 19.8485 38.7321 19.9697 38.3977 19.9697C37.7288 20 37.1816 19.4545 37.1816 18.8182C37.1816 18.7879 37.1816 18.7879 37.1816 18.7576V8.09091C37.1512 7.75758 37.3032 7.42424 37.516 7.18182C37.7592 6.9697 38.0632 6.84849 38.3977 6.84849C38.7321 6.81818 39.0361 6.9697 39.2793 7.18182C39.4921 7.39394 39.6137 7.69697 39.6137 8.0303C39.857 7.78788 40.161 7.57576 40.465 7.36364C41.2251 6.90909 42.1067 6.66667 42.9884 6.69697C43.8396 6.66667 44.6605 6.87879 45.4205 7.30303C45.9678 7.60606 46.4238 8.06061 46.7886 8.57576C47.1838 8.09091 47.6703 7.69697 48.2175 7.39394C49.0688 6.93939 50.0112 6.69697 50.9841 6.72727C51.8353 6.69697 52.6866 6.90909 53.4466 7.33333C54.1459 7.75758 54.7235 8.36364 55.0883 9.09091C55.514 9.9697 55.6964 10.9394 55.666 11.9091V18.7576C55.666 19.0909 55.5444 19.3939 55.3316 19.6364C54.9667 19.8485 54.6323 20 54.2979 19.9697Z" fill="#FFEC00" stroke="#1B1918" stroke-width="0.5669"/>
<path fill-rule="evenodd" clip-rule="evenodd" d="M12.0391 19.0303L11.8871 19.2727C11.6439 19.6667 11.3095 20.0909 11.0359 20.4848C11.3703 20.8182 11.6135 21.2424 11.7959 21.697C12.1607 22.5758 12.4343 23.4545 12.6472 24.3636C12.7688 24.7576 12.9816 25.1818 13.3464 25.3636C13.772 25.5455 14.2585 25.4242 14.6537 25.2424C15.5049 24.8182 16.0522 24.0606 16.4778 23.2121C17.2987 21.5455 17.7851 19.7273 18.3019 17.9394C19.2444 14.7879 20.278 11.6667 21.9502 8.78788C24.0175 5.27273 27.1489 2.48485 30.9187 0.878786C31.4964 0.636362 32.1044 0.454544 32.7124 0.393938C33.8981 0.21212 35.0534 0.999998 35.2662 2.18182C35.2966 2.30303 35.2966 2.45454 35.2966 2.60606C35.327 3.0606 35.175 3.48485 34.9014 3.81818L33.7461 5.39394C31.77 5.84848 30.0979 7.09091 29.0946 8.84848C27.6049 11.3333 26.4192 14 25.6288 16.7879C24.6255 20.2424 23.5919 23.697 22.3758 27.0909C21.1901 30.4242 19.1228 33.0909 15.809 34.5455C11.5831 36.3939 7.53962 35.697 4.0434 32.7273C2.5233 31.4545 1.45923 29.8182 0.516772 28.0909C0.0911445 27.303 -0.0912672 26.3636 0.0607426 25.4545V25.4242V25.3939C0.151948 24.8788 0.33436 24.4242 0.759988 24.0909C0.820792 24.0303 0.881595 24 0.942399 23.9697C0.881595 23.5152 0.972801 23.0303 1.21602 22.6061C1.33762 22.3333 1.52004 22.0606 1.73285 21.8182L1.76325 21.7879L1.79365 21.8182C3.73938 20.0606 6.01953 19.0909 8.6645 19.3333C9.09013 19.3636 9.33334 19.3939 9.72857 19.5758L9.85017 18.697C9.81977 18.4545 9.81977 17.8788 9.69816 17.6364C9.66776 17.6061 9.66776 17.5758 9.63736 17.5455C9.15093 17.303 8.60369 17.1515 8.05646 17.1212H8.02606H7.99565C6.59716 16.9394 5.19867 16.9091 3.80018 16.5455C2.5537 16.2424 1.24642 15.5758 0.820792 14.2727C0.395164 12.9394 1.12481 11.6364 2.00647 10.6667C2.5233 10.0909 3.10094 9.60606 3.73938 9.18182L4.86425 8.42424L5.38109 9.66667C5.5635 10.1212 5.5939 10.6364 5.38109 11.0909C5.25948 11.3333 5.10747 11.5455 4.95546 11.7273C4.92506 11.7879 4.83385 11.8485 4.80345 11.8788C4.65144 12.0909 4.31702 12.6364 4.40822 12.9091C4.49943 13.1515 5.07707 13.3636 5.28988 13.3939C6.44515 13.697 7.66123 13.8485 8.81651 14.0909C9.66776 14.2121 10.519 14.5152 11.2487 14.9697H11.2791L11.3095 15C11.8567 15.3939 12.2823 15.9091 12.4647 16.5455C12.6776 17.5152 12.4647 18.3333 12.0391 19.0303Z" fill="#70140C" stroke="#1B1918" stroke-width="0.0099"/>
<path fill-rule="evenodd" clip-rule="evenodd" d="M4.31708 10.0606C4.5603 10.6061 4.07387 10.8788 3.86105 11.2424C2.76658 12.7879 3.16181 14 4.98593 14.4848C6.1716 14.8182 7.41808 14.9697 8.63416 15.2121C9.36381 15.303 10.0327 15.5758 10.6407 15.9394C11.5527 16.5758 11.6744 17.4545 10.9447 18.5152C10.8839 17.697 10.8839 16.9394 10.1847 16.5152C9.54622 16.1818 8.84697 16 8.11733 15.9394C6.74924 15.7576 5.38115 15.7273 4.04346 15.3939C1.58091 14.7879 1.12488 13.2727 2.82739 11.3636C3.25301 10.8788 3.76985 10.4242 4.31708 10.0606Z" fill="white" stroke="black" stroke-width="0.0099"/>
<path fill-rule="evenodd" clip-rule="evenodd" d="M33.5638 4.18182C31.2836 4.69697 29.3379 6.15152 28.1826 8.18182C26.6321 10.7576 25.416 13.5152 24.5952 16.3939C23.5919 19.8182 22.5583 23.2424 21.3726 26.6364C20.2781 29.6667 18.4236 32.1212 15.4138 33.4242C11.5831 35.0909 7.99572 34.4545 4.83391 31.7879C3.43542 30.6061 2.43216 29.0606 1.5505 27.4545C1.18568 26.9091 1.06407 26.2121 1.15527 25.5758C1.24648 25.0606 1.42889 24.6667 2.12814 24.8788C2.79698 25.0606 3.46582 24.7879 4.13467 24.5758C5.50276 24.1515 6.1716 24.5152 6.47562 25.8788C6.65803 26.8485 6.74924 27.8485 6.71883 28.8485C6.77964 32.0606 8.75576 33.9394 11.948 33.6667C15.4442 33.3939 18.0588 31.6667 19.6397 28.5152C21.1598 25.4545 21.9502 22.2121 22.5279 18.8485C22.9231 16.3333 23.5007 13.8485 24.1696 11.3939C25.2032 7.78788 27.5138 5.21212 30.6452 3.27273C31.2228 2.93939 31.9221 2.33333 32.2565 3.60606C32.3477 4.06061 33.0165 3.84848 33.5638 4.18182Z" fill="white" stroke="black" stroke-width="0.0099"/>
<path fill-rule="evenodd" clip-rule="evenodd" d="M6.35401 22.5151C5.44195 23.3333 4.31708 23.9394 3.101 24.2424C2.76658 24.3939 2.40176 24.303 2.15854 24.0303C1.97613 23.7273 1.97613 23.3333 2.18894 23.0606C2.28015 22.8788 2.37136 22.697 2.52337 22.5151C4.22588 20.9697 6.202 20.0909 8.54295 20.3333C9.54622 20.4242 10.3975 21.0606 10.7319 22C11.0663 22.8182 11.3399 23.6667 11.5527 24.5454C12.0088 26.303 13.5289 26.9697 15.1706 26.1515C16.2955 25.6061 16.9643 24.6667 17.5115 23.6061C18.3628 21.8788 18.8796 20 19.4269 18.1515C20.3389 15.0909 21.3422 12.0303 22.9839 9.24242C24.9296 5.90909 27.8786 3.30303 31.4356 1.78788C31.9221 1.57575 32.4085 1.45454 32.9253 1.39394C33.5334 1.27272 34.111 1.66666 34.2326 2.27272C34.2326 2.36363 34.263 2.42424 34.263 2.51515C34.2934 2.87878 34.0198 3.24242 33.655 3.27272C33.6246 3.27272 33.5942 3.27272 33.5942 3.27272C33.2597 3.30303 32.9253 3.21212 32.9253 2.78788C32.9557 1.60606 32.2565 1.87878 31.618 2.15151C28.0914 3.81818 25.3552 6.27272 23.8047 9.90909C22.5887 12.7273 21.9198 15.7273 21.2814 18.7273C20.8557 20.6667 20.4909 22.6364 19.6701 24.4848C19.0012 25.9697 18.2108 27.3939 16.8427 28.3636C15.201 29.5151 12.9512 29.1515 11.796 27.5151C11.644 27.3333 11.5527 27.1212 11.4311 26.9091C10.9751 25.9394 10.8535 24.8485 10.6103 23.8182C10.0631 21.4848 8.84697 20.6667 6.38441 21.1212C5.28994 21.2727 4.25628 21.697 3.37462 22.3939C3.0402 22.6667 2.55377 23 2.76658 23.4848C3.0098 24.0606 3.58743 23.697 3.95226 23.5454C4.6515 23.2727 5.38115 22.9091 6.35401 22.5151Z" fill="white" stroke="#70140C" stroke-width="0.0099"/>
</g>
<defs>
<clipPath id="clip0_391_292">
<rect width="149" height="36" fill="white"/>
</clipPath>
</defs>
</svg>