<svg width="260" height="63" viewBox="0 0 260 63" fill="none" xmlns="http://www.w3.org/2000/svg">
<g>
<path fill-rule="evenodd" clip-rule="evenodd" d="M67.4801 39.5076H256.605C258.408 39.5076 259.894 40.9924 259.894 42.7954V59.6061C259.894 61.4091 258.408 62.8939 256.605 62.8939H67.4801C65.6764 62.8939 64.191 61.4091 64.191 59.6061V42.7954C64.191 40.9924 65.6764 39.5076 67.4801 39.5076Z" fill="white" stroke="#1B1918" stroke-width="0.5669"/>
<path fill-rule="evenodd" clip-rule="evenodd" d="M159.523 58.9697C158.886 58.9697 158.355 58.4924 158.355 57.8561V57.8031V45.394C158.355 45.0758 158.462 44.7576 158.674 44.5455C158.886 44.3334 159.204 44.2273 159.523 44.2273H169.231C169.549 44.2273 169.867 44.3334 170.08 44.5455C170.292 44.7576 170.398 45.0758 170.398 45.394V57.8031C170.398 58.1212 170.292 58.4394 170.08 58.6515C169.867 58.8637 169.549 58.9697 169.231 58.9697C168.912 58.9697 168.647 58.8637 168.382 58.6515C168.17 58.4394 168.011 58.1212 168.011 57.8031V46.4546H160.584V57.8561C160.584 58.1743 160.477 58.4924 160.265 58.7046C160.106 58.8637 159.841 58.9697 159.523 58.9697ZM190.239 61.8334C190.027 62.0985 189.708 62.2046 189.39 62.2046C188.753 62.2046 188.223 61.7273 188.223 61.0909V61.0379V58.0152C188.223 57.697 188.329 57.3788 188.541 57.1667C188.753 56.9546 189.072 56.7955 189.39 56.8485H189.814L194.695 45.0758C194.854 44.5985 195.279 44.2803 195.809 44.2803C196.34 44.2803 196.764 44.5985 196.923 45.0758L201.804 56.7955H202.228C202.865 56.7955 203.395 57.2728 203.395 57.9091C203.395 57.9621 203.395 57.9621 203.395 58.0152V60.9849C203.395 61.3031 203.289 61.6212 203.077 61.8334C202.865 62.0455 202.546 62.2046 202.228 62.1515C201.592 62.1515 201.061 61.6743 201.061 61.0379V60.9849V58.9167H190.557V60.9849C190.61 61.3031 190.451 61.6212 190.239 61.8334ZM129.814 58.8106C129.602 58.9697 129.284 59.0758 129.019 59.0758C128.7 59.0758 128.382 58.9167 128.17 58.7046L123.077 52.7121H121.485V57.9091C121.485 58.2273 121.379 58.5455 121.167 58.7576C120.902 58.9697 120.584 59.0758 120.265 59.0228C119.947 59.0228 119.682 58.9167 119.469 58.7046C119.257 58.4924 119.204 58.2273 119.204 57.9091V45.5C119.204 45.1818 119.31 44.8637 119.576 44.6515C119.788 44.4394 120.106 44.3334 120.424 44.3334C120.743 44.3334 121.061 44.4394 121.273 44.6515C121.485 44.8637 121.592 45.1818 121.592 45.5V50.5379H123.077L127.905 44.7576C128.117 44.4925 128.435 44.3334 128.753 44.3334C129.072 44.3334 129.39 44.4394 129.602 44.7046C129.814 44.9167 129.92 45.1818 129.92 45.447C129.92 45.7121 129.814 45.9773 129.602 46.1894L125.093 51.3864L130.08 57.1667C130.292 57.3788 130.398 57.644 130.398 57.9091C130.398 58.1743 130.239 58.4924 130.027 58.6515L129.973 58.7046L129.814 58.8106ZM105.729 59.0228C105.305 59.0228 104.934 58.8106 104.721 58.4394C104.509 58.0682 104.509 57.644 104.721 57.2728L109.761 45.1288C109.92 44.6515 110.398 44.3334 110.875 44.3334C111.406 44.3334 111.83 44.6515 111.989 45.1288L117.135 57.4318C117.294 57.8031 117.241 58.2273 117.029 58.5455C116.817 58.8637 116.446 59.0758 116.021 59.0758C115.809 59.0758 115.597 59.0228 115.385 58.8637C115.172 58.7576 115.013 58.5455 114.96 58.3334L113.952 55.8409H107.798L106.79 58.3334C106.684 58.5985 106.525 58.7576 106.313 58.9167C106.154 59.0228 105.942 59.0228 105.729 59.0228ZM93.5279 59.0228C92.8912 59.0228 92.3607 58.5455 92.3607 57.9091C92.3607 57.8561 92.3607 57.8561 92.3607 57.8031V45.447C92.3607 45.1288 92.4668 44.8106 92.679 44.5985C92.8912 44.3864 93.2096 44.2803 93.5279 44.2803H101.273C101.538 44.2803 101.857 44.3864 102.069 44.5985C102.546 44.9167 102.706 45.6061 102.334 46.1364C102.122 46.5076 101.698 46.6667 101.273 46.6137H94.748V50.2728H98.6737C99.5225 50.2728 100.424 50.4318 101.22 50.8031C101.91 51.1743 102.493 51.7046 102.865 52.3409C103.289 53.0303 103.501 53.7728 103.501 54.5682C103.501 55.4167 103.289 56.2121 102.865 56.9015C102.44 57.5909 101.91 58.1743 101.22 58.5455C100.424 58.9167 99.5756 59.1288 98.6737 59.1288L93.5279 59.0228ZM78.0371 58.4394C77.8249 58.0682 77.8249 57.644 78.0371 57.2728L83.0769 45.1288C83.2361 44.6515 83.6605 44.3334 84.191 44.3334C84.7215 44.3334 85.1459 44.6515 85.305 45.1288L90.4509 57.4318C90.6631 57.8031 90.6631 58.2273 90.4509 58.5455C90.0796 59.0758 89.3369 59.2349 88.8064 58.8637C88.5942 58.7576 88.435 58.5455 88.382 58.3334L87.374 55.8409H81.1141L80.1061 58.2803C80 58.4925 79.8409 58.7046 79.6286 58.8106C79.4695 58.9167 79.2573 58.9697 79.0981 58.9697C78.6207 59.0228 78.2493 58.8106 78.0371 58.4394ZM73.3156 59.0758C73.2626 59.0758 73.2626 59.0758 73.2095 59.0758H72.9973V59.0228C72.4668 58.9167 72.0424 58.4924 72.0424 57.9091V57.8561V46.5076H68.3289C67.7454 46.5606 67.2679 46.0834 67.2149 45.5C67.2149 45.447 67.2149 45.447 67.2149 45.394C67.2149 45.0758 67.321 44.8106 67.5332 44.5985C67.7454 44.3864 68.0637 44.2803 68.3289 44.2803H78.0902C78.4085 44.2803 78.6737 44.3864 78.8859 44.5985C79.0981 44.8106 79.2042 45.0758 79.2042 45.394C79.2573 45.9773 78.7798 46.4546 78.1963 46.5076C78.1432 46.5076 78.1432 46.5076 78.0902 46.5076H74.3767V57.9091C74.4297 58.4924 73.9523 59.0228 73.3156 59.0758ZM138.568 58.6515C138.249 58.6515 137.931 58.5455 137.719 58.3334C137.507 58.1212 137.347 57.8031 137.347 57.4849V45.0758C137.347 44.7576 137.454 44.4394 137.719 44.2273C137.931 44.0152 138.249 43.9091 138.568 43.9091C138.886 43.9091 139.204 44.0152 139.416 44.2273C139.629 44.4394 139.735 44.7576 139.735 45.0758V54.7803L148.064 44.3334C148.541 43.8561 149.284 43.8031 149.761 44.2803C149.761 44.2803 149.761 44.2803 149.814 44.3334C150.027 44.5455 150.133 44.8637 150.133 45.1818V57.5379C150.133 57.8561 150.027 58.1743 149.814 58.3864C149.602 58.5985 149.284 58.7576 148.966 58.7046C148.329 58.7046 147.798 58.2273 147.798 57.5909C147.798 57.5379 147.798 57.5379 147.798 57.4849V47.8334L139.469 58.2803C139.363 58.3864 139.204 58.4924 139.045 58.5985C138.886 58.6515 138.727 58.6515 138.568 58.6515ZM245.04 58.9697C244.721 58.9697 244.456 58.8637 244.191 58.6515C243.926 58.4394 243.82 58.1212 243.82 57.8031V45.394C243.82 45.0758 243.926 44.7576 244.191 44.5455C244.403 44.3334 244.721 44.2273 245.04 44.2273C245.358 44.2273 245.676 44.3334 245.889 44.5455C246.101 44.7576 246.207 45.0758 246.207 45.394V55.0985L254.536 44.6515C254.96 44.1212 255.703 44.0682 256.18 44.4394C256.446 44.6515 256.605 45.0228 256.605 45.394V57.8031C256.605 58.1212 256.499 58.4394 256.286 58.6515C256.074 58.8637 255.756 59.0228 255.438 58.9697C255.119 58.9697 254.854 58.8637 254.589 58.6515C254.377 58.4394 254.218 58.1212 254.218 57.8031V48.1515L245.889 58.5985C245.782 58.7046 245.623 58.8106 245.517 58.8637C245.358 58.9697 245.199 58.9697 245.04 58.9697ZM231.512 58.9697C231.3 58.9167 231.088 58.8106 230.928 58.6515C230.716 58.4394 230.557 58.1212 230.557 57.8031V45.394C230.557 45.0758 230.663 44.7576 230.928 44.5455C231.141 44.3334 231.459 44.2273 231.777 44.2273C232.095 44.2273 232.414 44.3334 232.626 44.5455C232.838 44.7576 232.944 45.0758 232.944 45.394V50.3788H234.536L239.363 44.6515C239.576 44.3864 239.894 44.2273 240.212 44.2273C240.53 44.2273 240.849 44.3334 241.061 44.5985C241.273 44.8106 241.379 45.0758 241.379 45.3409C241.379 45.6061 241.22 45.8712 241.061 46.0834L236.552 51.2803L241.538 57.0606C241.751 57.2728 241.857 57.5379 241.857 57.8031C241.857 58.1212 241.698 58.3864 241.485 58.5455L241.432 58.5985H241.379C240.902 58.9697 240.212 58.9697 239.735 58.5455L234.589 52.447H232.997V57.697C233.05 58.3334 232.573 58.8637 231.936 58.8637C231.883 58.8637 231.83 58.8637 231.83 58.8637H231.618L231.512 58.9697ZM220.159 58.9697C219.841 58.9697 219.523 58.8637 219.31 58.6515C219.098 58.4394 218.939 58.1212 218.992 57.8031V45.394C218.992 45.0758 219.098 44.7576 219.31 44.5455C219.523 44.3334 219.841 44.2273 220.159 44.2273H223.82C224.721 44.2273 225.57 44.4394 226.366 44.8637C227.056 45.2879 227.639 45.9243 228.011 46.6137C228.435 47.4091 228.647 48.3106 228.647 49.2121C228.647 50.0606 228.435 50.9621 228.011 51.7046C227.639 52.394 227.056 52.9773 226.366 53.4015C225.57 53.8258 224.721 54.0379 223.82 54.0379H221.379V57.9091C221.379 58.2273 221.273 58.5455 221.061 58.7576C220.796 58.9167 220.477 58.9697 220.159 58.9697ZM215.597 58.7576C215.385 58.6515 215.225 58.4394 215.119 58.2273L214.111 55.7879H207.798L206.79 58.2273C206.684 58.4394 206.525 58.6515 206.313 58.8106C206.101 58.9167 205.889 58.9697 205.676 58.9697C205.252 58.9697 204.881 58.7576 204.668 58.3864C204.456 58.0152 204.456 57.5909 204.668 57.2197L209.814 44.9697C209.973 44.4925 210.398 44.1743 210.928 44.1743C211.459 44.1743 211.883 44.4925 212.042 44.9697L217.188 57.2728C217.347 57.644 217.347 58.0682 217.188 58.3864C216.817 58.9697 216.127 59.1288 215.597 58.7576ZM172.891 51.5455C172.891 50.5379 173.05 49.4773 173.422 48.5228C173.793 47.6212 174.271 46.8258 174.96 46.1364C175.65 45.447 176.446 44.8637 177.347 44.4925C179.31 43.75 181.432 43.75 183.395 44.4925C185.199 45.2349 186.631 46.6667 187.321 48.4697C187.692 49.4243 187.851 50.4849 187.851 51.4924C187.851 52.5531 187.692 53.5606 187.321 54.5152C186.95 55.4167 186.419 56.2121 185.783 56.9015C185.093 57.5909 184.297 58.1743 183.395 58.5455C182.44 58.9697 181.432 59.1288 180.371 59.1818C179.363 59.1818 178.302 59.0228 177.347 58.6515C176.446 58.2803 175.65 57.697 174.96 57.0076C174.271 56.3182 173.793 55.5228 173.422 54.6212C173.103 53.6137 172.891 52.5531 172.891 51.5455ZM192.255 56.8485H199.469L195.756 47.8864L192.255 56.8485ZM113.21 53.8258L110.928 48.2576L108.647 53.7728H113.21V53.8258ZM94.695 56.7955H98.6207C99.0981 56.7955 99.5756 56.6894 100 56.5303C100.371 56.3712 100.69 56.1061 100.902 55.7349C101.114 55.3637 101.273 54.8864 101.22 54.4621C101.22 54.0379 101.114 53.6137 100.902 53.2425C100.69 52.9243 100.371 52.6591 100 52.5531C99.5756 52.394 99.0981 52.2879 98.6207 52.2879H94.695V56.7955ZM86.5782 53.8258L84.2971 48.2576L81.9629 53.7728H86.5782V53.8258ZM221.379 51.8106H223.873C224.35 51.8106 224.828 51.7046 225.252 51.4924C225.623 51.2803 225.942 50.9621 226.154 50.5909C226.366 50.1667 226.525 49.7425 226.472 49.2652C226.472 48.7349 226.366 48.2576 226.154 47.7803C225.942 47.4091 225.623 47.0379 225.252 46.8258C224.828 46.6137 224.35 46.4546 223.873 46.4546H221.379V51.8106ZM213.263 53.7728L210.981 48.1515L208.7 53.7728H213.263ZM184.138 55.4167C184.615 54.9394 184.987 54.3561 185.199 53.7197C185.729 52.3409 185.729 50.8561 185.199 49.4773C184.934 48.8409 184.562 48.2576 184.138 47.7803C183.342 47.0379 182.387 46.5076 181.326 46.3485C180.318 46.1894 179.257 46.2955 178.302 46.6667C177.666 46.9318 177.135 47.3031 176.658 47.7803C176.18 48.2576 175.809 48.8409 175.597 49.4773C175.066 50.8561 175.066 52.3409 175.597 53.7197C175.862 54.3561 176.18 54.9394 176.658 55.4167C177.135 55.894 177.666 56.2652 178.302 56.5303C178.939 56.7955 179.682 56.9546 180.371 56.9546C181.061 56.9546 181.804 56.8485 182.44 56.5303C183.077 56.3182 183.66 55.894 184.138 55.4167Z" fill="#050109"/>
<path fill-rule="evenodd" clip-rule="evenodd" d="M159.523 58.7575C158.992 58.7575 158.568 58.3863 158.568 57.856V57.803V45.3939C158.568 45.1288 158.674 44.9166 158.833 44.7045C158.992 44.5454 159.257 44.4394 159.523 44.4394H169.231C169.496 44.4394 169.761 44.5454 169.92 44.7045C170.08 44.8636 170.186 45.1288 170.186 45.3939V57.803C170.186 58.0682 170.08 58.2803 169.92 58.4924C169.708 58.6515 169.496 58.7575 169.231 58.7575C168.966 58.7575 168.753 58.6515 168.594 58.4924C168.382 58.3333 168.329 58.0682 168.329 57.803V46.1894H160.424V57.803C160.424 58.0682 160.318 58.2803 160.159 58.4924C160 58.6515 159.788 58.7575 159.523 58.7575ZM189.39 61.9924C188.912 61.9924 188.435 61.6212 188.435 61.0909V61.0378V58.0151C188.435 57.75 188.541 57.5378 188.7 57.3257C188.859 57.1666 189.125 57.0606 189.39 57.0606H189.973L194.907 45.1818C195.013 44.8106 195.385 44.5454 195.809 44.5454C196.233 44.5454 196.605 44.8106 196.711 45.1818L201.698 57.0606H202.281C202.812 57.0606 203.236 57.4318 203.236 57.9621V58.0151V60.9848C203.236 61.25 203.13 61.4621 202.971 61.6742C202.812 61.8333 202.546 61.9394 202.281 61.9394C201.751 61.9394 201.326 61.5681 201.326 61.0378V60.9848V58.6515H190.345V60.9848C190.345 61.25 190.239 61.4621 190.08 61.6742C189.92 61.8863 189.655 61.9924 189.39 61.9924ZM191.883 57.0606H199.788L195.756 47.303L191.883 57.0606ZM129.708 58.5454C129.496 58.7045 129.284 58.8106 129.019 58.8106C128.753 58.8106 128.488 58.7045 128.329 58.4924L123.183 52.4469H121.273V57.9091C121.273 58.1742 121.167 58.3863 121.008 58.5985C120.796 58.7575 120.53 58.8636 120.265 58.8106C120 58.8106 119.788 58.7045 119.629 58.5454C119.469 58.3863 119.416 58.1212 119.416 57.9091V45.5C119.416 45.2348 119.523 44.9697 119.682 44.8106C119.841 44.6515 120.106 44.5454 120.371 44.5454C120.637 44.5454 120.902 44.6515 121.061 44.8106C121.22 44.9697 121.326 45.2348 121.326 45.5V50.75H123.13L128.064 44.8636C128.223 44.6515 128.488 44.5454 128.753 44.5454C129.019 44.5454 129.231 44.6515 129.39 44.8106C129.549 44.9697 129.655 45.1818 129.655 45.3939C129.655 45.606 129.549 45.8182 129.39 46.0303L124.668 51.4394L129.761 57.3788C129.92 57.5378 130.027 57.75 130.027 58.0151C130.027 58.2272 129.92 58.4394 129.761 58.5985H129.708V58.5454ZM105.729 58.8106C105.411 58.8106 105.093 58.6515 104.934 58.3863C104.775 58.1212 104.775 57.75 104.934 57.4318L110.027 45.2348C110.133 44.8636 110.504 44.5985 110.928 44.5985C111.353 44.5985 111.724 44.8636 111.83 45.2348L116.976 57.5378C117.135 57.856 117.082 58.1742 116.923 58.4394C116.764 58.7045 116.446 58.8636 116.127 58.8636C115.915 58.8636 115.756 58.8106 115.597 58.7045C115.438 58.5985 115.332 58.4394 115.225 58.2803L114.164 55.6288H107.692L106.631 58.2803C106.578 58.4924 106.419 58.6515 106.26 58.7045C106.101 58.8106 105.889 58.8106 105.729 58.8106ZM113.528 54.0378L110.928 47.6212L108.329 54.0378H113.528ZM94.4828 57.0075H98.6737C99.2042 57.0075 99.6817 56.9015 100.159 56.7424C100.584 56.5303 100.902 56.2651 101.167 55.8939C101.432 55.4697 101.538 54.9924 101.538 54.4621C101.538 53.9848 101.432 53.5075 101.167 53.0833C100.955 52.7121 100.584 52.4469 100.159 52.2878C99.6817 52.1288 99.2042 52.0227 98.6737 52.0227H94.4828V57.0075ZM93.5278 58.8106C92.9973 58.8106 92.5729 58.4394 92.5729 57.9091V57.856V45.4469C92.5729 45.1818 92.679 44.9697 92.8382 44.7575C92.9973 44.5985 93.2626 44.4924 93.5278 44.4924H101.273C101.485 44.4924 101.751 44.5985 101.91 44.7575C102.334 45.0227 102.387 45.553 102.122 45.9772C101.91 46.2424 101.592 46.4015 101.273 46.3485H94.4828V50.4848H98.6737C99.5225 50.4848 100.318 50.6439 101.114 51.0151C101.751 51.3333 102.281 51.8636 102.706 52.4469C103.13 53.0833 103.342 53.8257 103.289 54.5682C103.289 55.3636 103.077 56.106 102.706 56.7954C102.334 57.4318 101.804 58.0151 101.114 58.3863C100.371 58.7575 99.5225 58.9697 98.6737 58.9166L93.5278 58.8106ZM79.0451 58.8106C78.7268 58.8106 78.4085 58.6515 78.2493 58.3863C78.0902 58.1212 78.0902 57.75 78.2493 57.4318L83.3422 45.2348C83.4483 44.8636 83.8196 44.5985 84.244 44.5985C84.6684 44.5985 85.0398 44.8636 85.1459 45.2348L90.2918 57.5378C90.4509 57.803 90.4509 58.1742 90.2918 58.4394C89.9735 58.8636 89.3899 58.9697 88.9655 58.7045C88.8064 58.5985 88.7003 58.4394 88.5942 58.2803L87.5332 55.6288H80.9549L79.8408 58.2272C79.7878 58.4394 79.6286 58.5454 79.4695 58.6515C79.3634 58.7045 79.2042 58.7575 79.0451 58.8106ZM86.8965 54.0378L84.3501 47.6742L81.6446 54.0909H86.8965V54.0378ZM68.3289 46.2424C67.8515 46.2954 67.4801 45.9242 67.4801 45.4469C67.4801 45.3939 67.4801 45.3939 67.4801 45.3409C67.4801 45.1288 67.5332 44.8636 67.6923 44.7045C67.8515 44.5454 68.0637 44.4394 68.3289 44.4394H72.2546H74.1645H78.0902C78.3024 44.4394 78.5676 44.5454 78.7268 44.7045C78.8859 44.8636 78.992 45.1288 78.939 45.3409C78.939 45.8182 78.6207 46.1894 78.1432 46.1894C78.0902 46.1894 78.0902 46.1894 78.0371 46.1894H74.1114V57.803C74.1114 58.3333 73.7401 58.7575 73.2095 58.7575H73.1565V58.7045C72.626 58.7045 72.2016 58.3333 72.2016 57.803V57.75V46.2424H68.3289ZM138.568 58.3863C138.302 58.3863 138.037 58.2803 137.878 58.1212C137.666 57.9621 137.613 57.6969 137.613 57.4318V45.0757C137.613 44.8106 137.719 44.5454 137.878 44.3863C138.09 44.2272 138.302 44.1212 138.568 44.1212C138.833 44.1212 139.045 44.2272 139.257 44.3863C139.416 44.5454 139.523 44.8106 139.523 45.0757V55.4697L148.276 44.4924C148.647 44.1212 149.231 44.0682 149.655 44.4394L149.708 44.4924C149.867 44.6515 149.973 44.9166 149.973 45.1818V57.5378C149.973 57.803 149.867 58.0151 149.708 58.2272C149.549 58.3863 149.284 58.4924 149.019 58.4924C148.541 58.4924 148.064 58.1212 148.064 57.5909V57.5378V47.1439L139.31 58.1212C139.204 58.2272 139.098 58.2803 138.992 58.3333C138.833 58.3863 138.727 58.4394 138.568 58.3863ZM245.04 58.7575C244.775 58.7575 244.562 58.6515 244.35 58.4924C244.138 58.3333 244.032 58.0682 244.032 57.803V45.3939C244.032 45.1288 244.138 44.8636 244.35 44.7045C244.509 44.5454 244.775 44.4394 245.04 44.4394C245.305 44.4394 245.517 44.5454 245.729 44.7045C245.889 44.9166 245.995 45.1288 245.942 45.3939V55.7878L254.695 44.8106C255.013 44.3863 255.597 44.3333 256.021 44.6515C256.233 44.8106 256.393 45.1288 256.393 45.3939V57.803C256.393 58.0682 256.286 58.2803 256.127 58.4924C255.968 58.6515 255.703 58.7575 255.438 58.7575C255.172 58.7575 254.96 58.6515 254.801 58.4924C254.589 58.3333 254.536 58.0682 254.536 57.803V47.5151L245.836 58.4924C245.729 58.5985 245.623 58.6515 245.517 58.7045C245.305 58.7575 245.146 58.7575 245.04 58.7575ZM231.724 58.7575C231.459 58.7575 231.247 58.6515 231.034 58.4924C230.822 58.3333 230.769 58.0682 230.769 57.803V45.3939C230.769 45.1288 230.875 44.8636 231.034 44.7045C231.194 44.5454 231.459 44.4394 231.724 44.4394C231.989 44.4394 232.255 44.5454 232.414 44.7045C232.573 44.8636 232.679 45.1288 232.679 45.3939V50.6439H234.589L239.469 44.8106C239.629 44.5985 239.894 44.4924 240.159 44.4924C240.424 44.4924 240.637 44.5985 240.796 44.7575C240.955 44.9166 241.061 45.1288 241.061 45.3409C241.061 45.553 240.955 45.7651 240.796 45.9772L236.18 51.3333L241.273 57.2727C241.432 57.4318 241.538 57.6439 241.538 57.9091C241.538 58.1212 241.432 58.3333 241.273 58.4924H241.22C240.849 58.8636 240.212 58.8636 239.841 58.4924L234.642 52.3409H232.732V57.803C232.785 58.2803 232.361 58.7045 231.883 58.7575C231.83 58.7575 231.777 58.7575 231.724 58.7575ZM221.114 52.0227H223.82C224.35 52.0227 224.828 51.9166 225.305 51.6515C225.729 51.3863 226.048 51.0682 226.313 50.6439C226.578 50.2197 226.684 49.6894 226.684 49.2121C226.684 48.6818 226.578 48.0985 226.313 47.6212C226.101 47.1969 225.729 46.8257 225.305 46.5606C224.828 46.2954 224.35 46.1894 223.82 46.1894H221.114V52.0227ZM220.212 58.7575C219.947 58.7575 219.735 58.6515 219.523 58.4924C219.363 58.3333 219.257 58.0682 219.257 57.803V45.3939C219.257 45.1288 219.363 44.9166 219.523 44.7045C219.682 44.5454 219.947 44.4394 220.212 44.4394H223.873C224.721 44.4394 225.57 44.6515 226.313 45.0227C227.003 45.4469 227.533 46.0303 227.905 46.7197C228.329 47.4621 228.541 48.3106 228.488 49.2121C228.488 50.0606 228.276 50.856 227.905 51.5985C227.533 52.2348 227.003 52.8182 226.313 53.1894C225.57 53.6136 224.721 53.7727 223.873 53.7727H221.167V57.856C221.167 58.1212 221.061 58.3333 220.902 58.5454C220.69 58.6515 220.424 58.7575 220.212 58.7575ZM205.729 58.7575C205.411 58.7575 205.093 58.5985 204.934 58.3333C204.775 58.0682 204.775 57.6969 204.934 57.3788L210.08 45.1288C210.186 44.7575 210.557 44.4924 210.981 44.4924C211.406 44.4924 211.777 44.7575 211.883 45.1288L217.029 57.4318C217.188 57.6969 217.188 58.0682 217.029 58.3333C216.711 58.7575 216.127 58.8636 215.703 58.5985C215.544 58.4924 215.385 58.3333 215.332 58.1742L214.271 55.5757H207.692L206.631 58.1742C206.578 58.3333 206.419 58.4924 206.26 58.5985C206.101 58.7045 205.942 58.7575 205.729 58.7575ZM213.634 53.9848L210.981 47.5151L208.329 53.9848H213.634ZM180.371 57.2197C181.114 57.2197 181.857 57.0606 182.546 56.7954C183.183 56.5303 183.767 56.106 184.297 55.6288C184.775 55.0985 185.146 54.5151 185.411 53.8257C185.942 52.3939 185.942 50.803 185.411 49.4242C185.146 48.7878 184.775 48.1515 184.297 47.6212C182.653 46.0303 180.265 45.606 178.196 46.4545C177.56 46.7197 176.976 47.1439 176.499 47.6212C176.021 48.1515 175.65 48.7348 175.385 49.4242C174.854 50.856 174.854 52.4469 175.385 53.8257C175.65 54.4621 176.021 55.0985 176.499 55.6288C176.976 56.1591 177.56 56.5303 178.196 56.7954C178.886 57.0606 179.629 57.2197 180.371 57.2197ZM180.371 58.9166C179.363 58.9166 178.355 58.7575 177.454 58.3863C176.605 58.0151 175.809 57.4848 175.172 56.7954C174.536 56.106 174.005 55.3636 173.687 54.4621C173.316 53.5075 173.156 52.5 173.156 51.4924C173.156 50.4848 173.316 49.4772 173.687 48.5757C174.005 47.7272 174.536 46.9318 175.172 46.2424C175.809 45.553 176.605 45.0227 177.454 44.6515C179.363 43.9091 181.432 43.9091 183.342 44.6515C185.093 45.3409 186.472 46.7197 187.109 48.4697C187.48 49.4242 187.639 50.3788 187.639 51.3863C187.639 52.3939 187.48 53.4015 187.109 54.356C186.737 55.2045 186.26 56 185.623 56.6894C184.987 57.3788 184.191 57.9091 183.342 58.2803C182.387 58.7045 181.379 58.9166 180.371 58.9166Z" fill="#1B1918"/>
<path fill-rule="evenodd" clip-rule="evenodd" d="M113.05 35.106C111.088 35.1591 109.231 34.6288 107.586 33.5682C105.942 32.5606 104.668 31.1288 103.767 29.4318C102.812 27.6288 102.334 25.5606 102.334 23.4924C102.281 21.3712 102.812 19.303 103.873 17.5C107.056 11.9848 114.164 10.0757 119.682 13.3106C121.432 14.3182 122.865 15.75 123.873 17.5C124.881 19.303 125.411 21.3712 125.411 23.4924H125.464V32.8257C125.517 33.9924 124.562 34.947 123.448 34.947C123.395 34.947 123.395 34.947 123.342 34.947C122.175 35 121.22 34.0454 121.22 32.9318C121.22 32.8788 121.22 32.8788 121.22 32.8257V31.2348C120.477 32.1363 119.576 32.9318 118.621 33.5682C116.87 34.5757 114.96 35.1591 113.05 35.106ZM113.899 31.3409C115.225 31.3409 116.552 31.0227 117.719 30.3333C118.833 29.6439 119.735 28.6894 120.371 27.5227C121.008 26.303 121.379 24.9242 121.326 23.4924C121.326 22.1136 121.008 20.6818 120.371 19.4621C119.735 18.2954 118.833 17.3409 117.719 16.6515C115.385 15.2727 112.467 15.2727 110.133 16.6515C109.019 17.3409 108.064 18.2954 107.48 19.4621C106.79 20.6818 106.472 22.1136 106.472 23.4924C106.472 24.8712 106.79 26.25 107.48 27.5227C108.117 28.6894 109.019 29.6439 110.133 30.3333C111.247 30.9697 112.573 31.3409 113.899 31.3409Z" fill="#FFEC00" stroke="#1B1918" stroke-width="0.5669"/>
<path fill-rule="evenodd" clip-rule="evenodd" d="M142.228 35.1061C140.159 35.1591 138.09 34.6818 136.233 33.7273C134.536 32.8258 133.157 31.5 132.149 29.9091C131.141 28.2121 130.61 26.303 130.61 24.2879H130.663V19.5682C130.716 16.3333 131.671 13.2046 133.475 10.5C135.597 7.53031 138.515 5.19698 141.857 3.81819L149.708 0.318192C150.186 0.106071 150.716 0.0530405 151.194 0.212131C151.671 0.371222 151.989 0.742434 152.149 1.21971C152.361 1.69698 152.361 2.17425 152.308 2.65153C152.202 3.07577 151.777 3.50001 151.088 3.81819L142.599 7.74243C140.796 8.48486 139.151 9.59849 137.772 10.9243C136.552 12.0909 135.597 13.4697 134.96 15.0606C134.536 16.1743 134.218 17.3409 134.111 18.5606C134.96 17.0758 136.18 15.803 137.666 14.9546C141.008 13.0985 145.04 13.0985 148.329 14.9546C149.867 15.8561 151.141 17.1818 151.989 18.7727C152.891 20.4697 153.369 22.4318 153.316 24.3939C153.369 26.3561 152.838 28.2652 151.883 30.0152C150.928 31.6591 149.602 32.9849 147.958 33.8333C146.207 34.6818 144.244 35.1061 142.228 35.1061ZM142.228 31.3409C143.501 31.3939 144.775 31.0758 145.889 30.4394C146.95 29.8561 147.798 29.0076 148.382 27.947C149.019 26.8333 149.284 25.5606 149.284 24.2879C149.284 23.0152 149.019 21.7955 148.382 20.6818C147.798 19.6743 146.95 18.7727 145.889 18.1894C144.775 17.6061 143.501 17.2879 142.228 17.3409C140.902 17.2879 139.576 17.6061 138.355 18.1894C137.294 18.7727 136.393 19.6212 135.756 20.6818C135.119 21.7955 134.801 23.0152 134.801 24.2879C134.801 25.5606 135.119 26.8333 135.756 27.947C136.393 29.0076 137.294 29.8561 138.355 30.4394C139.576 31.0227 140.902 31.3409 142.228 31.3409Z" fill="#FFEC00" stroke="#1B1918" stroke-width="0.5669"/>
<path fill-rule="evenodd" clip-rule="evenodd" d="M168.7 35.1061C166.737 35.1591 164.881 34.6288 163.236 33.5682C161.645 32.5606 160.318 31.1288 159.416 29.4318C158.462 27.5758 157.984 25.5606 158.037 23.4924C157.984 21.3712 158.515 19.303 159.576 17.5C160.584 15.75 162.016 14.3182 163.714 13.3106C165.517 12.25 167.533 11.7727 169.602 11.7727C173.74 11.7197 177.56 13.894 179.576 17.447C180.637 19.25 181.114 21.3182 181.114 23.4394H181.167V32.7727C181.22 33.9394 180.265 34.8939 179.151 34.8939C179.098 34.8939 179.098 34.8939 179.045 34.8939C178.462 34.8939 177.931 34.6818 177.507 34.3106C177.082 33.8864 176.87 33.3561 176.923 32.7727V31.1818C176.18 32.0833 175.279 32.8788 174.271 33.5152C172.573 34.5758 170.663 35.1061 168.7 35.1061ZM169.549 31.3409C170.875 31.3409 172.202 31.0227 173.369 30.3333C174.483 29.6439 175.385 28.6894 176.021 27.5227C176.658 26.303 177.029 24.9243 176.976 23.4924C176.976 22.1136 176.658 20.6818 175.968 19.4621C175.332 18.2955 174.43 17.3409 173.316 16.6515C170.981 15.2727 168.064 15.2727 165.729 16.6515C164.615 17.3409 163.66 18.2955 163.024 19.4621C162.334 20.6818 162.016 22.1136 162.016 23.4924C162.016 24.8712 162.334 26.25 163.024 27.5227C163.66 28.6894 164.562 29.6439 165.729 30.3333C166.897 31.0227 168.223 31.3409 169.549 31.3409Z" fill="#FFEC00" stroke="#1B1918" stroke-width="0.5669"/>
<path fill-rule="evenodd" clip-rule="evenodd" d="M189.443 34.947C188.912 35 188.329 34.7348 187.958 34.3636C187.586 33.9394 187.374 33.4091 187.427 32.8257V14.1591C187.427 13.5757 187.586 13.0454 187.958 12.6212C188.329 12.197 188.859 11.9848 189.443 12.0379C190.027 12.0379 190.61 12.25 191.034 12.6212C191.459 13.0454 191.671 13.5757 191.618 14.1591V21.2121H194.801L202.387 12.7273C202.812 12.303 203.342 12.0909 203.926 12.0379C204.456 11.9318 205.04 12.0909 205.464 12.4621C205.836 12.7803 206.101 13.2576 206.154 13.7879C206.207 14.2651 206.048 14.7424 205.676 15.1136L198.09 23.2273L206.154 31.8182C206.844 32.4545 206.844 33.5682 206.207 34.2576C206.154 34.3106 206.101 34.3636 206.048 34.4167V34.4697C205.146 35.1591 203.873 35.1061 202.971 34.3636L194.377 25.1364H191.618V32.8788C191.618 33.4621 191.406 33.9924 191.034 34.4167C190.61 34.7879 190.027 35 189.443 34.947Z" fill="#FFEC00" stroke="#1B1918" stroke-width="0.5669"/>
<path fill-rule="evenodd" clip-rule="evenodd" d="M221.061 35.1061C218.992 35.1591 216.923 34.6288 215.066 33.6212C213.369 32.6667 211.936 31.2349 210.981 29.5379C209.019 25.7727 209.019 21.2652 210.981 17.447C211.936 15.75 213.369 14.3182 215.066 13.3637C218.78 11.3485 223.289 11.3485 227.056 13.3637C228.753 14.3182 230.186 15.75 231.141 17.447C233.103 21.2121 233.103 25.7197 231.141 29.5379C230.186 31.2349 228.806 32.6667 227.056 33.6212C225.199 34.6288 223.13 35.1591 221.061 35.1061ZM221.061 31.3409C222.387 31.394 223.767 31.0227 224.934 30.3334C226.048 29.644 226.95 28.6894 227.533 27.5758C228.17 26.3031 228.488 24.9243 228.488 23.4924C228.488 22.0606 228.17 20.6818 227.533 19.4091C226.95 18.2424 226.048 17.2879 224.934 16.5985C222.546 15.2727 219.629 15.2727 217.241 16.5985C216.127 17.2879 215.225 18.2424 214.589 19.4091C213.952 20.6818 213.581 22.0606 213.634 23.4924C213.581 24.9243 213.952 26.3031 214.589 27.5758C215.225 28.7424 216.127 29.697 217.241 30.3334C218.355 31.0227 219.682 31.3409 221.061 31.3409Z" fill="#FFEC00" stroke="#1B1918" stroke-width="0.5669"/>
<path fill-rule="evenodd" clip-rule="evenodd" d="M257.613 34.9469C256.446 35 255.491 34.0454 255.491 32.9318C255.491 32.8788 255.491 32.8788 255.491 32.8257V24.9242H242.546V32.8257C242.546 33.4091 242.334 33.9394 241.963 34.3636C241.538 34.7879 241.008 35 240.424 34.9469C239.841 34.9469 239.31 34.7348 238.939 34.3636C238.568 33.9394 238.355 33.4091 238.355 32.8257V14.1591C238.355 13.5757 238.515 13.0454 238.939 12.6212C239.31 12.1969 239.894 11.9848 240.424 12.0379C241.538 11.9848 242.493 12.8333 242.546 13.9469C242.546 14.053 242.546 14.106 242.546 14.2121V21.2651H255.491V14.1591C255.438 13.5757 255.703 12.9924 256.074 12.6212C256.499 12.25 257.029 12.0379 257.613 12.0379C258.196 11.9848 258.78 12.25 259.151 12.6742C259.523 13.0985 259.735 13.6818 259.682 14.2121V32.8788C259.682 33.4621 259.523 33.9924 259.151 34.4166C258.727 34.7879 258.196 35 257.613 34.9469Z" fill="#FFEC00" stroke="#1B1918" stroke-width="0.5669"/>
<path fill-rule="evenodd" clip-rule="evenodd" d="M94.748 34.947C93.5809 35 92.626 34.0985 92.626 32.9318C92.626 32.8788 92.626 32.8788 92.626 32.8258V20.8409C92.7321 19.4091 92.3077 17.9773 91.3528 16.8636C90.4509 15.9621 89.1777 15.5379 87.9576 15.5909C86.5783 15.5379 85.305 16.1212 84.4032 17.0758C83.6074 17.9243 83.13 19.0379 83.0239 20.1515C83.0239 20.3636 83.0239 20.5758 83.0239 20.7349V32.7197C83.0239 33.303 82.8117 33.8333 82.4403 34.2576C82.069 34.6818 81.4854 34.947 80.9019 34.894C80.3183 34.894 79.7878 34.6818 79.3634 34.3106C78.939 33.8864 78.7268 33.3561 78.7798 32.7727V20.8409C78.8859 19.4091 78.4615 17.9773 77.5066 16.8636C76.6048 15.9621 75.3316 15.5379 74.1114 15.5909C72.7321 15.5379 71.4589 16.1212 70.504 17.0758C69.7082 17.9243 69.2308 19.0379 69.1247 20.2046V32.7727C69.1247 33.3561 68.9125 33.8864 68.5411 34.3106C68.1167 34.7349 67.5862 34.947 67.0027 34.947C65.8355 35 64.8806 34.0455 64.8806 32.9318C64.8806 32.8788 64.8806 32.8788 64.8806 32.8258V14.1591C64.8276 13.5758 65.0928 12.9924 65.4642 12.5682C65.8886 12.197 66.4191 11.9849 67.0027 11.9849C67.5862 11.9318 68.1167 12.197 68.5411 12.5682C68.9125 12.9394 69.1247 13.4697 69.1247 14.053C69.5491 13.6288 70.0796 13.2576 70.6101 12.8864C71.9363 12.0909 73.4748 11.6667 75.0133 11.7197C76.4987 11.6667 77.931 12.0379 79.2573 12.7803C80.2122 13.3106 81.008 14.1061 81.6446 15.0076C82.3342 14.1591 83.183 13.4697 84.1379 12.9394C85.6233 12.1439 87.2679 11.7197 88.9655 11.7727C90.4509 11.7197 91.9363 12.0909 93.2626 12.8333C94.4828 13.5758 95.4907 14.6364 96.1273 15.9091C96.87 17.447 97.1883 19.1439 97.1353 20.8409V32.8258C97.1353 33.4091 96.9231 33.9394 96.5517 34.3636C95.9151 34.7349 95.3316 35 94.748 34.947Z" fill="#FFEC00" stroke="#1B1918" stroke-width="0.5669"/>
<path fill-rule="evenodd" clip-rule="evenodd" d="M21.008 33.303L20.7427 33.7273C20.3183 34.4167 19.7348 35.1591 19.2573 35.8485C19.8409 36.4318 20.2653 37.1743 20.5836 37.9697C21.2202 39.5076 21.6976 41.0455 22.069 42.6364C22.2812 43.3258 22.6525 44.0682 23.2891 44.3864C24.0318 44.7046 24.8806 44.4924 25.5703 44.1743C27.0557 43.4318 28.0106 42.1061 28.7533 40.6212C30.1857 37.7046 31.0345 34.5227 31.9363 31.394C33.5809 25.8788 35.3846 20.4167 38.3024 15.3788C41.9098 9.22729 47.374 4.3485 53.9523 1.53789C54.9602 1.11365 56.0212 0.795471 57.0822 0.68941C59.1512 0.371228 61.1671 1.75002 61.5385 3.8182C61.5915 4.03032 61.5915 4.29547 61.5915 4.56062C61.6446 5.35608 61.3793 6.0985 60.9019 6.68183L58.8859 9.43941C55.4377 10.2349 52.5199 12.4091 50.7692 15.4849C48.1698 19.8333 46.1008 24.5 44.7215 29.3788C42.9708 35.4243 41.1671 41.4697 39.0451 47.4091C36.9761 53.2424 33.3687 57.9091 27.5862 60.4546C20.2122 63.6894 13.1565 62.4697 7.05571 57.2727C4.40319 55.0455 2.54642 52.1818 0.901861 49.1591C0.159156 47.7803 -0.159147 46.1364 0.106105 44.5455V44.4924V44.4394C0.265257 43.5379 0.583559 42.7424 1.32626 42.1591C1.43237 42.053 1.53847 42 1.64457 41.947C1.53847 41.1515 1.69762 40.303 2.12202 39.5606C2.33422 39.0833 2.65252 38.6061 3.02388 38.1818L3.07693 38.1288L3.12998 38.1818C6.5252 35.1061 10.504 33.4091 15.1194 33.8333C15.8621 33.8864 16.2865 33.9394 16.9761 34.2576L17.1883 32.7197C17.1353 32.2955 17.1353 31.2879 16.9231 30.8637C16.87 30.8106 16.87 30.7576 16.817 30.7046C15.9682 30.2803 15.0133 30.0152 14.0584 29.9621H14.0053H13.9523C11.5119 29.644 9.07162 29.5909 6.6313 28.9546C4.45624 28.4243 2.17507 27.2576 1.43237 24.9773C0.68966 22.644 1.96287 20.3637 3.50133 18.6667C4.40319 17.6591 5.41115 16.8106 6.5252 16.0682L8.48807 14.7424L9.38993 16.9167C9.70823 17.7121 9.76128 18.6137 9.38993 19.4091C9.17772 19.8333 8.91247 20.2046 8.64722 20.5227C8.59417 20.6288 8.43502 20.7349 8.38197 20.7879C8.11672 21.1591 7.53316 22.1137 7.69231 22.5909C7.85146 23.0152 8.85942 23.3864 9.23077 23.4394C11.2467 23.9697 13.3687 24.2349 15.3846 24.6591C16.87 24.8712 18.3554 25.4015 19.6287 26.197H19.6817L19.7348 26.25C20.6897 26.9394 21.4324 27.8409 21.7507 28.9546C22.122 30.6515 21.7507 32.0833 21.008 33.303Z" fill="#70140C" stroke="#1B1918" stroke-width="0.0099"/>
<path fill-rule="evenodd" clip-rule="evenodd" d="M7.53316 17.6061C7.95756 18.5606 7.10875 19.0379 6.7374 19.6743C4.82759 22.3788 5.51724 24.5 8.70027 25.3485C10.7692 25.9318 12.9443 26.197 15.0663 26.6212C16.3395 26.7803 17.5066 27.2576 18.5676 27.894C20.1592 29.0076 20.3714 30.5455 19.0981 32.4015C18.992 30.9697 18.992 29.644 17.7719 28.9015C16.6578 28.3182 15.4377 28 14.1645 27.894C11.7772 27.5758 9.38992 27.5227 7.0557 26.9394C2.75862 25.8788 1.96287 23.2273 4.93369 19.8864C5.67639 19.0379 6.57825 18.2424 7.53316 17.6061Z" fill="white" stroke="black" stroke-width="0.0099"/>
<path fill-rule="evenodd" clip-rule="evenodd" d="M58.5676 7.31819C54.5889 8.21971 51.1936 10.7652 49.1777 14.3182C46.4721 18.8258 44.3501 23.6515 42.9178 28.6894C41.1671 34.6818 39.3634 40.6743 37.2944 46.6136C35.3846 51.9167 32.1485 56.2121 26.8966 58.4924C20.2122 61.4091 13.9523 60.2955 8.43501 55.6288C5.9947 53.5606 4.24403 50.8561 2.70557 48.0455C2.06897 47.0909 1.85677 45.8712 2.01592 44.7576C2.17507 43.8561 2.49337 43.1667 3.71353 43.5379C4.88064 43.8561 6.04775 43.3788 7.21486 43.0076C9.60212 42.2652 10.7692 42.9015 11.2997 45.2879C11.618 46.9849 11.7772 48.7349 11.7241 50.4849C11.8302 56.1061 15.2785 59.3939 20.8488 58.9167C26.9496 58.4394 31.5119 55.4167 34.2706 49.9015C36.9231 44.5455 38.3024 38.8712 39.3103 32.9849C40 28.5833 41.008 24.2349 42.1751 19.9394C43.9788 13.6288 48.0106 9.12122 53.4748 5.72728C54.4828 5.14395 55.7029 4.08334 56.2865 6.31062C56.4456 7.10607 57.6127 6.73486 58.5676 7.31819Z" fill="white" stroke="black" stroke-width="0.0099"/>
<path fill-rule="evenodd" clip-rule="evenodd" d="M11.0875 39.4015C9.49602 40.8333 7.53316 41.8939 5.41114 42.4243C4.82759 42.6894 4.19099 42.5303 3.76658 42.053C3.44828 41.5227 3.44828 40.8333 3.81963 40.3561C3.97878 40.0379 4.13793 39.7197 4.40319 39.4015C7.37401 36.697 10.8223 35.1591 14.9072 35.5833C16.6578 35.7424 18.1432 36.8561 18.7268 38.5C19.3103 39.9318 19.7878 41.4167 20.1592 42.9546C20.9549 46.0303 23.6074 47.197 26.4722 45.7652C28.435 44.8106 29.6021 43.1667 30.557 41.3106C32.0424 38.2879 32.9443 35 33.8992 31.7652C35.4907 26.4091 37.2414 21.053 40.1061 16.1743C43.5013 10.3409 48.6472 5.78032 54.8541 3.1288C55.7029 2.75759 56.5517 2.54547 57.4536 2.43941C58.5146 2.22729 59.5225 2.91668 59.7347 3.97729C59.7347 4.13638 59.7878 4.24244 59.7878 4.40153C59.8409 5.03789 59.3634 5.67426 58.7268 5.72729C58.6737 5.72729 58.6207 5.72729 58.6207 5.72729C58.0371 5.78032 57.4536 5.62122 57.4536 4.8788C57.5066 2.81062 56.2865 3.28789 55.1724 3.76516C49.0186 6.68183 44.244 10.9773 41.5385 17.3409C39.4165 22.2727 38.2493 27.5227 37.1353 32.7727C36.3926 36.1667 35.756 39.6136 34.3236 42.8485C33.1565 45.447 31.7772 47.9394 29.3899 49.6364C26.5252 51.6515 22.5995 51.0152 20.5836 48.1515C20.3183 47.8333 20.1592 47.4621 19.947 47.0909C19.1512 45.394 18.939 43.4849 18.5146 41.6818C17.5597 37.5985 15.4377 36.1667 11.1406 36.9621C9.23077 37.2273 7.42706 37.9697 5.8886 39.1894C5.30504 39.6667 4.45624 40.25 4.82759 41.0985C5.25199 42.1061 6.25995 41.4697 6.89656 41.2046C8.11671 40.7273 9.38992 40.0909 11.0875 39.4015Z" fill="white" stroke="#70140C" stroke-width="0.0099"/>
</g>
<defs>
<clipPath id="clip0_391_176">
<rect width="260" height="63" fill="white"/>
</clipPath>
</defs>
</svg>
