<svg width="15" height="16" viewBox="0 0 15 16" fill="none" xmlns="http://www.w3.org/2000/svg"><path fill-rule="evenodd" clip-rule="evenodd" d="M13.4639 0.557231C13.8926 0.905498 13.9577 1.5353 13.6094 1.96394L2.77611 15.2973C2.42784 15.7259 1.79804 15.7911 1.3694 15.4428C0.940766 15.0945 0.875614 14.4647 1.22388 14.0361L12.0572 0.702753C12.4055 0.274117 13.0353 0.208964 13.4639 0.557231ZM3.24999 4.33332C3.75626 4.33332 4.16666 3.92291 4.16666 3.41665C4.16666 2.91039 3.75626 2.49998 3.24999 2.49998C2.74373 2.49998 2.33333 2.91039 2.33333 3.41665C2.33333 3.92291 2.74373 4.33332 3.24999 4.33332ZM3.24999 6.33332C4.86083 6.33332 6.16666 5.02748 6.16666 3.41665C6.16666 1.80582 4.86083 0.499985 3.24999 0.499985C1.63916 0.499985 0.333328 1.80582 0.333328 3.41665C0.333328 5.02748 1.63916 6.33332 3.24999 6.33332ZM12.5 12.5833C12.5 13.0896 12.0896 13.5 11.5833 13.5C11.0771 13.5 10.6667 13.0896 10.6667 12.5833C10.6667 12.0771 11.0771 11.6667 11.5833 11.6667C12.0896 11.6667 12.5 12.0771 12.5 12.5833ZM14.5 12.5833C14.5 14.1942 13.1942 15.5 11.5833 15.5C9.9725 15.5 8.66666 14.1942 8.66666 12.5833C8.66666 10.9725 9.9725 9.66668 11.5833 9.66668C13.1942 9.66668 14.5 10.9725 14.5 12.5833Z" fill="#888888"/></svg>