<svg width="20" height="20" viewBox="0 0 20 20" fill="none" xmlns="http://www.w3.org/2000/svg"><circle cx="9.6875" cy="8.4375" r="3.0625" stroke="#888888" stroke-width="2"/><circle cx="10" cy="10" r="9" stroke="#888888" stroke-width="2"/><path d="M4.08293 16.6013C3.86272 17.1078 4.09479 17.6969 4.60127 17.9171C5.10776 18.1373 5.69686 17.9052 5.91707 17.3987L4.08293 16.6013ZM14.0829 17.3987C14.3031 17.9052 14.8922 18.1373 15.3987 17.9171C15.9052 17.6969 16.1373 17.1078 15.9171 16.6013L14.0829 17.3987ZM5.91707 17.3987C6.2381 16.6604 7.54341 15 10 15V13C6.54355 13 4.63147 15.3396 4.08293 16.6013L5.91707 17.3987ZM10 15C12.4566 15 13.7619 16.6604 14.0829 17.3987L15.9171 16.6013C15.3685 15.3396 13.4565 13 10 13V15Z" fill="#888888"/></svg>