<svg width="37" height="48" viewBox="0 0 37 48" fill="none" xmlns="http://www.w3.org/2000/svg"><path d="M11.25 2.25H2.25V11.25H11.25V2.25ZM13.5 0V13.5H0V0H13.5ZM4.5 4.5H9V9H4.5V4.5ZM33.75 2.25H24.75V11.25H33.75V2.25ZM36 0V13.5H22.5V0H36ZM27 4.5H31.5V9H27V4.5ZM11.25 24.75H2.25V33.75H11.25V24.75ZM13.5 22.5V36H0V22.5H13.5ZM4.5 27H9V31.5H4.5V27ZM15.75 0H18V2.25H15.75V0ZM18 2.25H20.25V4.5H18V2.25ZM15.75 4.5H18V6.75H15.75V4.5ZM18 6.75H20.25V9H18V6.75ZM15.75 9H18V11.25H15.75V9ZM18 11.25H20.25V13.5H18V11.25ZM15.75 13.5H18V15.75H15.75V13.5ZM15.75 18H18V20.25H15.75V18ZM18 20.25H20.25V22.5H18V20.25ZM15.75 22.5H18V24.75H15.75V22.5ZM18 24.75H20.25V27H18V24.75ZM15.75 27H18V29.25H15.75V27ZM18 29.25H20.25V31.5H18V29.25ZM15.75 31.5H18V33.75H15.75V31.5ZM18 33.75H20.25V36H18V33.75ZM33.75 18H36V20.25H33.75V18ZM2.25 18H4.5V20.25H2.25V18ZM4.5 15.75H6.75V18H4.5V15.75ZM0 15.75H2.25V18H0V15.75ZM9 15.75H11.25V18H9V15.75ZM11.25 18H13.5V20.25H11.25V18ZM13.5 15.75H15.75V18H13.5V15.75ZM20.25 18H22.5V20.25H20.25V18ZM22.5 15.75H24.75V18H22.5V15.75ZM24.75 18H27V20.25H24.75V18ZM27 15.75H29.25V18H27V15.75ZM29.25 18H31.5V20.25H29.25V18ZM31.5 15.75H33.75V18H31.5V15.75ZM33.75 22.5H36V24.75H33.75V22.5ZM20.25 22.5H22.5V24.75H20.25V22.5ZM22.5 20.25H24.75V22.5H22.5V20.25ZM24.75 22.5H27V24.75H24.75V22.5ZM29.25 22.5H31.5V24.75H29.25V22.5ZM31.5 20.25H33.75V22.5H31.5V20.25ZM33.75 27H36V29.25H33.75V27ZM20.25 27H22.5V29.25H20.25V27ZM22.5 24.75H24.75V27H22.5V24.75ZM27 24.75H29.25V27H27V24.75ZM29.25 27H31.5V29.25H29.25V27ZM31.5 24.75H33.75V27H31.5V24.75ZM33.75 31.5H36V33.75H33.75V31.5ZM22.5 29.25H24.75V31.5H22.5V29.25ZM24.75 31.5H27V33.75H24.75V31.5ZM27 29.25H29.25V31.5H27V29.25ZM29.25 31.5H31.5V33.75H29.25V31.5ZM22.5 33.75H24.75V36H22.5V33.75ZM27 33.75H29.25V36H27V33.75ZM31.5 33.75H33.75V36H31.5V33.75Z" fill="#FBB502" fill-opacity="0.2"/><path d="M36.3536 44.3536C36.5488 44.1583 36.5488 43.8417 36.3536 43.6464L33.1716 40.4645C32.9763 40.2692 32.6597 40.2692 32.4645 40.4645C32.2692 40.6597 32.2692 40.9763 32.4645 41.1716L35.2929 44L32.4645 46.8284C32.2692 47.0237 32.2692 47.3403 32.4645 47.5355C32.6597 47.7308 32.9763 47.7308 33.1716 47.5355L36.3536 44.3536ZM0 44.5L36 44.5V43.5L0 43.5L0 44.5Z" fill="#FBB502" fill-opacity="0.2"/></svg>